ISO-10303-21;
HEADER;
FILE_DESCRIPTION (( 'STEP AP214' ),
    '1' );
FILE_NAME ('LAB-001-020-110_00.STEP',
    '2025-01-07T18:31:14',
    ( '' ),
    ( '' ),
    'SwSTEP 2.0',
    'SolidWorks 2022',
    '' );
FILE_SCHEMA (( 'AUTOMOTIVE_DESIGN' ));
ENDSEC;

DATA;
#1 = CARTESIAN_POINT ( 'NONE',  ( -25.25000000000000000, 0.000000000000000000, 0.000000000000000000 ) ) ;
#2 = EDGE_CURVE ( 'NONE', #207, #1059, #720, .T. ) ;
#3 = VERTEX_POINT ( 'NONE', #734 ) ;
#4 = VERTEX_POINT ( 'NONE', #484 ) ;
#5 = CYLINDRICAL_SURFACE ( 'NONE', #861, 19.00000000000000000 ) ;
#6 = PLANE ( 'NONE',  #521 ) ;
#7 = CARTESIAN_POINT ( 'NONE',  ( 3.999999999999735323, -21.00000000000000000, 8.000000000000000000 ) ) ;
#8 = ADVANCED_FACE ( 'NONE', ( #311 ), #160, .F. ) ;
#9 = ORIENTED_EDGE ( 'NONE', *, *, #20, .F. ) ;
#10 = CARTESIAN_POINT ( 'NONE',  ( -2.641584726159505513E-13, -21.00000000000000000, 8.000000000000000000 ) ) ;
#11 =( NAMED_UNIT ( * ) PLANE_ANGLE_UNIT ( ) SI_UNIT ( $, .RADIAN. ) );
#12 = CIRCLE ( 'NONE', #675, 25.25000000000000000 ) ;
#13 = DIRECTION ( 'NONE',  ( -0.000000000000000000, -0.000000000000000000, -1.000000000000000000 ) ) ;
#14 = AXIS2_PLACEMENT_3D ( 'NONE', #54, #705, #382 ) ;
#15 = ORIENTED_EDGE ( 'NONE', *, *, #404, .T. ) ;
#16 = CARTESIAN_POINT ( 'NONE',  ( 0.000000000000000000, 0.000000000000000000, 0.000000000000000000 ) ) ;
#17 = DIRECTION ( 'NONE',  ( 1.000000000000000000, 0.000000000000000000, 0.000000000000000000 ) ) ;
#18 = EDGE_LOOP ( 'NONE', ( #258, #367, #289, #802, #893, #201, #794, #350 ) ) ;
#19 = DIRECTION ( 'NONE',  ( -0.000000000000000000, -0.000000000000000000, 1.000000000000000000 ) ) ;
#20 = EDGE_CURVE ( 'NONE', #616, #39, #554, .T. ) ;
#21 = CARTESIAN_POINT ( 'NONE',  ( -18.60671921645509030, 15.00000000000002309, 12.00000000000000000 ) ) ;
#22 = DIRECTION ( 'NONE',  ( 1.000000000000000000, 0.000000000000000000, 0.000000000000000000 ) ) ;
#23 = ORIENTED_EDGE ( 'NONE', *, *, #269, .T. ) ;
#24 = VERTEX_POINT ( 'NONE', #234 ) ;
#25 = CARTESIAN_POINT ( 'NONE',  ( 2.933510730180078685, 23.71928571428571431, 8.000000000000000000 ) ) ;
#26 = DIRECTION ( 'NONE',  ( 0.000000000000000000, -0.000000000000000000, -1.000000000000000000 ) ) ;
#27 = FACE_OUTER_BOUND ( 'NONE', #468, .T. ) ;
#28 = AXIS2_PLACEMENT_3D ( 'NONE', #318, #383, #310 ) ;
#29 = VERTEX_POINT ( 'NONE', #646 ) ;
#30 = AXIS2_PLACEMENT_3D ( 'NONE', #16, #345, #741 ) ;
#31 = DIRECTION ( 'NONE',  ( 0.000000000000000000, 0.000000000000000000, 1.000000000000000000 ) ) ;
#32 = PLANE ( 'NONE',  #569 ) ;
#33 = EDGE_CURVE ( 'NONE', #753, #629, #584, .T. ) ;
#34 = ORIENTED_EDGE ( 'NONE', *, *, #443, .F. ) ;
#35 = DIRECTION ( 'NONE',  ( -1.000000000000000000, 0.000000000000000000, -0.000000000000000000 ) ) ;
#36 = DIRECTION ( 'NONE',  ( -0.000000000000000000, -0.000000000000000000, 1.000000000000000000 ) ) ;
#37 = CARTESIAN_POINT ( 'NONE',  ( 0.000000000000000000, 0.000000000000000000, 12.00000000000000000 ) ) ;
#38 = EDGE_CURVE ( 'NONE', #682, #154, #391, .T. ) ;
#39 = VERTEX_POINT ( 'NONE', #252 ) ;
#40 = AXIS2_PLACEMENT_3D ( 'NONE', #918, #989, #76 ) ;
#41 = CARTESIAN_POINT ( 'NONE',  ( -2.641584726159505513E-13, -21.00000000000000000, 8.000000000000000000 ) ) ;
#42 = CARTESIAN_POINT ( 'NONE',  ( 0.000000000000000000, 0.000000000000000000, 7.000000000000000000 ) ) ;
#43 = VECTOR ( 'NONE', #667, 1000.000000000000000 ) ;
#44 = ORIENTED_EDGE ( 'NONE', *, *, #404, .F. ) ;
#45 = PRESENTATION_LAYER_ASSIGNMENT (  '', '', ( #300 ) ) ;
#46 = AXIS2_PLACEMENT_3D ( 'NONE', #1057, #55, #547 ) ;
#47 = DIRECTION ( 'NONE',  ( 0.000000000000000000, 0.000000000000000000, 1.000000000000000000 ) ) ;
#48 = CARTESIAN_POINT ( 'NONE',  ( 0.000000000000000000, 0.000000000000000000, 0.000000000000000000 ) ) ;
#49 = ORIENTED_EDGE ( 'NONE', *, *, #241, .F. ) ;
#50 = EDGE_CURVE ( 'NONE', #239, #760, #974, .T. ) ;
#51 = DIRECTION ( 'NONE',  ( 0.000000000000000000, 0.000000000000000000, 1.000000000000000000 ) ) ;
#52 = DIRECTION ( 'NONE',  ( 0.000000000000000000, 0.000000000000000000, 1.000000000000000000 ) ) ;
#53 = VERTEX_POINT ( 'NONE', #910 ) ;
#54 = CARTESIAN_POINT ( 'NONE',  ( 1.482500161549134971E-15, 21.00000000000000000, 8.000000000000000000 ) ) ;
#55 = DIRECTION ( 'NONE',  ( 0.000000000000000000, 0.000000000000000000, 1.000000000000000000 ) ) ;
#56 = ORIENTED_EDGE ( 'NONE', *, *, #834, .T. ) ;
#57 = CARTESIAN_POINT ( 'NONE',  ( -1.481247163929606854E-13, -21.00000000000000000, 8.000000000000000000 ) ) ;
#58 = AXIS2_PLACEMENT_3D ( 'NONE', #677, #530, #119 ) ;
#59 = CARTESIAN_POINT ( 'NONE',  ( 20.48282771154164550, -12.41838507451423723, 9.418385074514226574 ) ) ;
#60 =( BOUNDED_CURVE ( )  B_SPLINE_CURVE ( 3, ( #105, #768, #931, #185 ),
 .UNSPECIFIED., .F., .T. ) 
 B_SPLINE_CURVE_WITH_KNOTS ( ( 4, 4 ),
 ( 0.8923103215956066370, 1.092518372257495374 ),
 .UNSPECIFIED. ) 
 CURVE ( )  GEOMETRIC_REPRESENTATION_ITEM ( )  RATIONAL_B_SPLINE_CURVE ( ( 1.000000000000000000, 0.9966625164601562448, 0.9966625164601562448, 1.000000000000000000 ) ) 
 REPRESENTATION_ITEM ( '' )  );
#61 = CARTESIAN_POINT ( 'NONE',  ( 0.000000000000000000, 0.000000000000000000, 7.000000000000000000 ) ) ;
#62 = EDGE_CURVE ( 'NONE', #154, #257, #352, .T. ) ;
#63 = EDGE_LOOP ( 'NONE', ( #881, #127, #917, #1060 ) ) ;
#64 = DIRECTION ( 'NONE',  ( 1.000000000000000000, 0.000000000000000000, -0.000000000000000000 ) ) ;
#65 = CARTESIAN_POINT ( 'NONE',  ( -0.6089803659954563519, -18.99023809523809092, 7.000000000000000000 ) ) ;
#66 = ORIENTED_EDGE ( 'NONE', *, *, #631, .T. ) ;
#67 = EDGE_CURVE ( 'NONE', #325, #53, #916, .T. ) ;
#68 = EDGE_LOOP ( 'NONE', ( #721, #381, #630, #481 ) ) ;
#69 = ORIENTED_EDGE ( 'NONE', *, *, #299, .F. ) ;
#70 = CARTESIAN_POINT ( 'NONE',  ( -34.94592146739513083, 11.00000000000000000, 4.000000000000000000 ) ) ;
#71 =( GEOMETRIC_REPRESENTATION_CONTEXT ( 3 ) GLOBAL_UNCERTAINTY_ASSIGNED_CONTEXT ( ( #390 ) ) GLOBAL_UNIT_ASSIGNED_CONTEXT ( ( #696, #100, #369 ) ) REPRESENTATION_CONTEXT ( 'NONE', 'WORKASPACE' ) );
#72 = CARTESIAN_POINT ( 'NONE',  ( -3.999999999999998224, 21.00000000000000000, 8.000000000000000000 ) ) ;
#73 = ORIENTED_EDGE ( 'NONE', *, *, #20, .T. ) ;
#74 = VERTEX_POINT ( 'NONE', #672 ) ;
#75 = VECTOR ( 'NONE', #98, 1000.000000000000000 ) ;
#76 = DIRECTION ( 'NONE',  ( 1.000000000000000000, 0.000000000000000000, 0.000000000000000000 ) ) ;
#77 = EDGE_CURVE ( 'NONE', #373, #620, #174, .T. ) ;
#78 = AXIS2_PLACEMENT_3D ( 'NONE', #762, #832, #581 ) ;
#79 = CARTESIAN_POINT ( 'NONE',  ( -19.00000000000000000, 0.000000000000000000, 0.000000000000000000 ) ) ;
#80 = AXIS2_PLACEMENT_3D ( 'NONE', #409, #925, #1069 ) ;
#81 = DIRECTION ( 'NONE',  ( -0.000000000000000000, -0.000000000000000000, 1.000000000000000000 ) ) ;
#82 = ORIENTED_EDGE ( 'NONE', *, *, #805, .T. ) ;
#83 = CARTESIAN_POINT ( 'NONE',  ( 21.21815260572889628, -11.00000000000000000, 4.000000000000000000 ) ) ;
#84 = EDGE_CURVE ( 'NONE', #473, #575, #247, .T. ) ;
#85 = FACE_OUTER_BOUND ( 'NONE', #63, .T. ) ;
#86 = CARTESIAN_POINT ( 'NONE',  ( 0.000000000000000000, 0.000000000000000000, 8.000000000000000000 ) ) ;
#87 = ORIENTED_EDGE ( 'NONE', *, *, #678, .T. ) ;
#88 = CARTESIAN_POINT ( 'NONE',  ( -2.933510730180363790, -23.71928571428568944, 10.00000000000000000 ) ) ;
#89 = FACE_OUTER_BOUND ( 'NONE', #841, .T. ) ;
#90 = LINE ( 'NONE', #839, #467 ) ;
#91 = ORIENTED_EDGE ( 'NONE', *, *, #112, .F. ) ;
#92 = CARTESIAN_POINT ( 'NONE',  ( 1.482500161549134971E-15, 21.00000000000000000, 8.000000000000000000 ) ) ;
#93 = AXIS2_PLACEMENT_3D ( 'NONE', #407, #710, #977 ) ;
#94 = CARTESIAN_POINT ( 'NONE',  ( 0.000000000000000000, 0.000000000000000000, 4.000000000000000000 ) ) ;
#95 = EDGE_LOOP ( 'NONE', ( #529, #923 ) ) ;
#96 = DIRECTION ( 'NONE',  ( -0.000000000000000000, -0.000000000000000000, 1.000000000000000000 ) ) ;
#97 = CARTESIAN_POINT ( 'NONE',  ( -3.999999999999998224, 21.00000000000000000, 8.000000000000000000 ) ) ;
#98 = DIRECTION ( 'NONE',  ( -0.000000000000000000, -0.000000000000000000, 1.000000000000000000 ) ) ;
#99 = ORIENTED_EDGE ( 'NONE', *, *, #374, .F. ) ;
#100 =( NAMED_UNIT ( * ) PLANE_ANGLE_UNIT ( ) SI_UNIT ( $, .RADIAN. ) );
#101 = DIRECTION ( 'NONE',  ( 1.000000000000000000, 0.000000000000000000, 0.000000000000000000 ) ) ;
#102 = CYLINDRICAL_SURFACE ( 'NONE', #957, 19.00000000000000000 ) ;
#103 = ORIENTED_EDGE ( 'NONE', *, *, #702, .F. ) ;
#104 = ADVANCED_FACE ( 'NONE', ( #262 ), #102, .F. ) ;
#105 = CARTESIAN_POINT ( 'NONE',  ( 18.60671921645509030, 15.00000000000002309, 12.00000000000000000 ) ) ;
#106 = LINE ( 'NONE', #1039, #384 ) ;
#107 = CIRCLE ( 'NONE', #280, 19.00000000000000000 ) ;
#108 = CIRCLE ( 'NONE', #836, 4.000000000000000000 ) ;
#109 = ORIENTED_EDGE ( 'NONE', *, *, #792, .T. ) ;
#110 = AXIS2_PLACEMENT_3D ( 'NONE', #326, #173, #670 ) ;
#111 = LINE ( 'NONE', #456, #141 ) ;
#112 = EDGE_CURVE ( 'NONE', #771, #760, #1001, .T. ) ;
#113 = CARTESIAN_POINT ( 'NONE',  ( -34.94592146739513083, -11.00000000000000000, 4.000000000000000000 ) ) ;
#114 = ORIENTED_EDGE ( 'NONE', *, *, #552, .F. ) ;
#115 = CYLINDRICAL_SURFACE ( 'NONE', #267, 4.000000000000000000 ) ;
#116 = DIRECTION ( 'NONE',  ( -0.000000000000000000, -0.000000000000000000, -1.000000000000000000 ) ) ;
#117 = ORIENTED_EDGE ( 'NONE', *, *, #67, .T. ) ;
#118 = DIRECTION ( 'NONE',  ( 1.000000000000000000, 0.000000000000000000, 0.000000000000000000 ) ) ;
#119 = DIRECTION ( 'NONE',  ( 1.000000000000000000, 0.000000000000000000, 0.000000000000000000 ) ) ;
#120 = DIRECTION ( 'NONE',  ( 1.000000000000000000, 0.000000000000000000, 0.000000000000000000 ) ) ;
#121 = VECTOR ( 'NONE', #770, 1000.000000000000000 ) ;
#122 = ORIENTED_EDGE ( 'NONE', *, *, #67, .F. ) ;
#123 = EDGE_CURVE ( 'NONE', #224, #253, #90, .T. ) ;
#124 = AXIS2_PLACEMENT_3D ( 'NONE', #639, #979, #295 ) ;
#125 = LINE ( 'NONE', #375, #522 ) ;
#126 = FACE_OUTER_BOUND ( 'NONE', #68, .T. ) ;
#127 = ORIENTED_EDGE ( 'NONE', *, *, #591, .F. ) ;
#128 = ORIENTED_EDGE ( 'NONE', *, *, #1024, .T. ) ;
#129 = EDGE_CURVE ( 'NONE', #730, #358, #428, .T. ) ;
#130 = CARTESIAN_POINT ( 'NONE',  ( 21.21815260572889628, 11.00000000000000000, 4.000000000000000000 ) ) ;
#131 = DIRECTION ( 'NONE',  ( -0.000000000000000000, -0.000000000000000000, 1.000000000000000000 ) ) ;
#132 = ORIENTED_EDGE ( 'NONE', *, *, #981, .T. ) ;
#133 = LINE ( 'NONE', #465, #356 ) ;
#134 = ADVANCED_FACE ( 'NONE', ( #256, #27 ), #752, .F. ) ;
#135 = CARTESIAN_POINT ( 'NONE',  ( 1.482500161549134971E-15, 21.00000000000000000, 0.000000000000000000 ) ) ;
#136 = ORIENTED_EDGE ( 'NONE', *, *, #455, .T. ) ;
#137 = ORIENTED_EDGE ( 'NONE', *, *, #50, .F. ) ;
#138 = CIRCLE ( 'NONE', #780, 25.25000000000000000 ) ;
#139 = AXIS2_PLACEMENT_3D ( 'NONE', #199, #31, #1020 ) ;
#140 = DIRECTION ( 'NONE',  ( 0.000000000000000000, 0.000000000000000000, 1.000000000000000000 ) ) ;
#141 = VECTOR ( 'NONE', #36, 1000.000000000000000 ) ;
#142 = FACE_OUTER_BOUND ( 'NONE', #1044, .T. ) ;
#143 = EDGE_CURVE ( 'NONE', #53, #235, #972, .T. ) ;
#144 = ORIENTED_EDGE ( 'NONE', *, *, #170, .F. ) ;
#145 = ORIENTED_EDGE ( 'NONE', *, *, #908, .T. ) ;
#146 = DIRECTION ( 'NONE',  ( -0.000000000000000000, -0.000000000000000000, 1.000000000000000000 ) ) ;
#147 = DIRECTION ( 'NONE',  ( 0.000000000000000000, 0.000000000000000000, 1.000000000000000000 ) ) ;
#148 = ORIENTED_EDGE ( 'NONE', *, *, #1061, .F. ) ;
#149 = EDGE_CURVE ( 'NONE', #444, #629, #796, .T. ) ;
#150 = ORIENTED_EDGE ( 'NONE', *, *, #2, .F. ) ;
#151 = CARTESIAN_POINT ( 'NONE',  ( 0.6089803659953237913, 18.99023809523809447, 7.000000000000000000 ) ) ;
#152 = CARTESIAN_POINT ( 'NONE',  ( 21.21815260572889628, 11.00000000000000000, 4.000000000000000000 ) ) ;
#153 = EDGE_LOOP ( 'NONE', ( #568, #73, #385, #15, #190, #758 ) ) ;
#154 = VERTEX_POINT ( 'NONE', #654 ) ;
#155 = ADVANCED_FACE ( 'NONE', ( #349 ), #511, .T. ) ;
#156 = DIRECTION ( 'NONE',  ( -0.000000000000000000, 1.000000000000000000, 0.000000000000000000 ) ) ;
#157 = VECTOR ( 'NONE', #483, 1000.000000000000000 ) ;
#158 = DIRECTION ( 'NONE',  ( 0.000000000000000000, 0.000000000000000000, 1.000000000000000000 ) ) ;
#159 = CIRCLE ( 'NONE', #301, 2.100000000000000533 ) ;
#160 = CYLINDRICAL_SURFACE ( 'NONE', #1030, 2.100000000000000977 ) ;
#161 = ORIENTED_EDGE ( 'NONE', *, *, #374, .T. ) ;
#162 = DIRECTION ( 'NONE',  ( 0.000000000000000000, 0.000000000000000000, 1.000000000000000000 ) ) ;
#163 = CARTESIAN_POINT ( 'NONE',  ( -34.94592146739513083, -11.00000000000000000, 4.000000000000000000 ) ) ;
#164 = CARTESIAN_POINT ( 'NONE',  ( 0.000000000000000000, 0.000000000000000000, 4.000000000000000000 ) ) ;
#165 = ORIENTED_EDGE ( 'NONE', *, *, #62, .F. ) ;
#166 = ORIENTED_EDGE ( 'NONE', *, *, #859, .F. ) ;
#167 = FACE_OUTER_BOUND ( 'NONE', #541, .T. ) ;
#168 =( BOUNDED_CURVE ( )  B_SPLINE_CURVE ( 3, ( #608, #868, #773, #1037 ),
 .UNSPECIFIED., .F., .T. ) 
 B_SPLINE_CURVE_WITH_KNOTS ( ( 4, 4 ),
 ( 0.8923103215956066370, 1.092518372257495374 ),
 .UNSPECIFIED. ) 
 CURVE ( )  GEOMETRIC_REPRESENTATION_ITEM ( )  RATIONAL_B_SPLINE_CURVE ( ( 1.000000000000000000, 0.9966625164601562448, 0.9966625164601562448, 1.000000000000000000 ) ) 
 REPRESENTATION_ITEM ( '' )  );
#169 = DIRECTION ( 'NONE',  ( 1.000000000000000000, 0.000000000000000000, 0.000000000000000000 ) ) ;
#170 = EDGE_CURVE ( 'NONE', #789, #607, #679, .T. ) ;
#171 = DIRECTION ( 'NONE',  ( -0.000000000000000000, -0.000000000000000000, -1.000000000000000000 ) ) ;
#172 = ORIENTED_EDGE ( 'NONE', *, *, #323, .T. ) ;
#173 = DIRECTION ( 'NONE',  ( -0.000000000000000000, -0.000000000000000000, -1.000000000000000000 ) ) ;
#174 = CIRCLE ( 'NONE', #765, 25.25000000000000000 ) ;
#175 = CARTESIAN_POINT ( 'NONE',  ( -20.48282771154164550, 12.41838507451423723, 9.418385074514226574 ) ) ;
#176 = CIRCLE ( 'NONE', #124, 2.100000000000000977 ) ;
#177 = DIRECTION ( 'NONE',  ( -0.000000000000000000, -0.000000000000000000, 1.000000000000000000 ) ) ;
#178 = EDGE_CURVE ( 'NONE', #663, #454, #634, .T. ) ;
#179 = VERTEX_POINT ( 'NONE', #596 ) ;
#180 = CYLINDRICAL_SURFACE ( 'NONE', #1047, 4.000000000000000000 ) ;
#181 = CARTESIAN_POINT ( 'NONE',  ( -21.21815260572889628, -11.00000000000000000, 7.999999999999996447 ) ) ;
#182 = DIRECTION ( 'NONE',  ( -1.000000000000000000, 0.000000000000000000, 0.000000000000000000 ) ) ;
#183 = ORIENTED_EDGE ( 'NONE', *, *, #241, .T. ) ;
#184 = EDGE_CURVE ( 'NONE', #856, #74, #138, .T. ) ;
#185 = CARTESIAN_POINT ( 'NONE',  ( 21.21815260572889628, 11.00000000000000000, 7.999999999999996447 ) ) ;
#186 = DIRECTION ( 'NONE',  ( -1.000000000000000000, 0.000000000000000000, 0.000000000000000000 ) ) ;
#187 = CIRCLE ( 'NONE', #327, 4.000000000000000000 ) ;
#188 = PRESENTATION_LAYER_ASSIGNMENT (  '', '', ( #209 ) ) ;
#189 = ORIENTED_EDGE ( 'NONE', *, *, #480, .T. ) ;
#190 = ORIENTED_EDGE ( 'NONE', *, *, #323, .F. ) ;
#191 =( LENGTH_UNIT ( ) NAMED_UNIT ( * ) SI_UNIT ( .MILLI., .METRE. ) );
#192 = EDGE_CURVE ( 'NONE', #492, #224, #213, .T. ) ;
#193 = CARTESIAN_POINT ( 'NONE',  ( 1.482500161549134971E-15, 21.00000000000000000, 8.000000000000000000 ) ) ;
#194 = CARTESIAN_POINT ( 'NONE',  ( 2.100000000000002309, 21.00000000000000000, 0.000000000000000000 ) ) ;
#195 = VECTOR ( 'NONE', #1033, 1000.000000000000000 ) ;
#196 = EDGE_LOOP ( 'NONE', ( #245, #413, #1029, #44, #66, #966, #555, #87, #691, #9 ) ) ;
#197 = CIRCLE ( 'NONE', #886, 19.00000000000000000 ) ;
#198 = FILL_AREA_STYLE_COLOUR ( '', #650 ) ;
#199 = CARTESIAN_POINT ( 'NONE',  ( 1.482500161549134971E-15, 21.00000000000000000, 0.000000000000000000 ) ) ;
#200 = LINE ( 'NONE', #600, #372 ) ;
#201 = ORIENTED_EDGE ( 'NONE', *, *, #678, .F. ) ;
#202 = ORIENTED_EDGE ( 'NONE', *, *, #963, .F. ) ;
#203 = CARTESIAN_POINT ( 'NONE',  ( -1.481247163929606854E-13, -21.00000000000000000, 0.000000000000000000 ) ) ;
#204 = DIRECTION ( 'NONE',  ( 1.000000000000000000, 0.000000000000000000, 0.000000000000000000 ) ) ;
#205 = DIRECTION ( 'NONE',  ( 1.000000000000000000, 0.000000000000000000, 0.000000000000000000 ) ) ;
#206 = EDGE_CURVE ( 'NONE', #207, #753, #1042, .T. ) ;
#207 = VERTEX_POINT ( 'NONE', #528 ) ;
#208 = ORIENTED_EDGE ( 'NONE', *, *, #754, .T. ) ;
#209 = STYLED_ITEM ( 'NONE', ( #1031 ), #343 ) ;
#210 = CARTESIAN_POINT ( 'NONE',  ( -2.641584726159505513E-13, -21.00000000000000000, 8.000000000000000000 ) ) ;
#211 = CARTESIAN_POINT ( 'NONE',  ( 21.21815260572889628, -11.00000000000000000, 4.000000000000000000 ) ) ;
#212 = ADVANCED_FACE ( 'NONE', ( #126 ), #277, .T. ) ;
#213 = CIRCLE ( 'NONE', #230, 4.000000000000000000 ) ;
#214 = ORIENTED_EDGE ( 'NONE', *, *, #987, .F. ) ;
#215 = VECTOR ( 'NONE', #1063, 1000.000000000000000 ) ;
#216 = DIRECTION ( 'NONE',  ( 1.000000000000000000, 0.000000000000000000, 0.000000000000000000 ) ) ;
#217 = CARTESIAN_POINT ( 'NONE',  ( -2.933510730180376225, -23.71928571428567523, 8.000000000000000000 ) ) ;
#218 = ORIENTED_EDGE ( 'NONE', *, *, #686, .T. ) ;
#219 = EDGE_CURVE ( 'NONE', #24, #358, #107, .T. ) ;
#220 = DIRECTION ( 'NONE',  ( -1.000000000000000000, 0.000000000000000000, 0.000000000000000000 ) ) ;
#221 = LINE ( 'NONE', #733, #335 ) ;
#222 = VERTEX_POINT ( 'NONE', #1034 ) ;
#223 = DIRECTION ( 'NONE',  ( 1.000000000000000000, 0.000000000000000000, 0.000000000000000000 ) ) ;
#224 = VERTEX_POINT ( 'NONE', #446 ) ;
#225 = EDGE_CURVE ( 'NONE', #1059, #730, #674, .T. ) ;
#226 = DIRECTION ( 'NONE',  ( 0.000000000000000000, 0.000000000000000000, 1.000000000000000000 ) ) ;
#227 = CARTESIAN_POINT ( 'NONE',  ( 19.60943498125589812, -13.75618328736259066, 10.75618328736257112 ) ) ;
#228 = DIRECTION ( 'NONE',  ( -0.000000000000000000, -0.000000000000000000, -1.000000000000000000 ) ) ;
#229 = ORIENTED_EDGE ( 'NONE', *, *, #149, .T. ) ;
#230 = AXIS2_PLACEMENT_3D ( 'NONE', #825, #738, #495 ) ;
#231 = AXIS2_PLACEMENT_3D ( 'NONE', #48, #365, #559 ) ;
#232 = DIRECTION ( 'NONE',  ( 1.000000000000000000, 0.000000000000000000, -0.000000000000000000 ) ) ;
#233 = DIRECTION ( 'NONE',  ( 0.000000000000000000, 0.000000000000000000, -1.000000000000000000 ) ) ;
#234 = CARTESIAN_POINT ( 'NONE',  ( -0.6089803659954564630, -18.99023809523809092, 0.000000000000000000 ) ) ;
#235 = VERTEX_POINT ( 'NONE', #438 ) ;
#236 = ORIENTED_EDGE ( 'NONE', *, *, #805, .F. ) ;
#237 = CARTESIAN_POINT ( 'NONE',  ( 0.000000000000000000, 0.000000000000000000, 4.000000000000000000 ) ) ;
#238 = DIRECTION ( 'NONE',  ( 0.000000000000000000, 0.000000000000000000, 1.000000000000000000 ) ) ;
#239 = VERTEX_POINT ( 'NONE', #614 ) ;
#240 = APPLICATION_PROTOCOL_DEFINITION ( 'draft international standard', 'automotive_design', 1998, #822 ) ;
#241 = EDGE_CURVE ( 'NONE', #444, #207, #297, .T. ) ;
#242 = ORIENTED_EDGE ( 'NONE', *, *, #859, .T. ) ;
#243 = DIRECTION ( 'NONE',  ( -0.000000000000000000, -0.000000000000000000, 1.000000000000000000 ) ) ;
#244 = DIRECTION ( 'NONE',  ( -0.000000000000000000, -0.000000000000000000, -1.000000000000000000 ) ) ;
#245 = ORIENTED_EDGE ( 'NONE', *, *, #255, .F. ) ;
#246 = EDGE_LOOP ( 'NONE', ( #946, #183, #1053, #565 ) ) ;
#247 = CIRCLE ( 'NONE', #503, 19.00000000000000000 ) ;
#248 = CARTESIAN_POINT ( 'NONE',  ( -2.641584726159505513E-13, -21.00000000000000000, 8.000000000000000000 ) ) ;
#249 =( GEOMETRIC_REPRESENTATION_CONTEXT ( 3 ) GLOBAL_UNCERTAINTY_ASSIGNED_CONTEXT ( ( #750 ) ) GLOBAL_UNIT_ASSIGNED_CONTEXT ( ( #919, #11, #336 ) ) REPRESENTATION_CONTEXT ( 'NONE', 'WORKASPACE' ) );
#250 = CARTESIAN_POINT ( 'NONE',  ( -34.94592146739513083, 11.00000000000000000, 7.000000000000000000 ) ) ;
#251 = AXIS2_PLACEMENT_3D ( 'NONE', #237, #894, #713 ) ;
#252 = CARTESIAN_POINT ( 'NONE',  ( -18.60671921645509030, 15.00000000000002309, 12.00000000000000000 ) ) ;
#253 = VERTEX_POINT ( 'NONE', #690 ) ;
#254 = CARTESIAN_POINT ( 'NONE',  ( 0.000000000000000000, 0.000000000000000000, 7.000000000000000000 ) ) ;
#255 = EDGE_CURVE ( 'NONE', #700, #616, #788, .T. ) ;
#256 = FACE_BOUND ( 'NONE', #263, .T. ) ;
#257 = VERTEX_POINT ( 'NONE', #858 ) ;
#258 = ORIENTED_EDGE ( 'NONE', *, *, #571, .F. ) ;
#259 = DIRECTION ( 'NONE',  ( 1.000000000000000000, 0.000000000000000000, 0.000000000000000000 ) ) ;
#260 = EDGE_CURVE ( 'NONE', #479, #1035, #855, .T. ) ;
#261 = PRESENTATION_STYLE_ASSIGNMENT (( #347 ) ) ;
#262 = FACE_OUTER_BOUND ( 'NONE', #746, .T. ) ;
#263 = EDGE_LOOP ( 'NONE', ( #109, #517, #274, #911, #807, #811, #320, #570, #704 ) ) ;
#264 = CYLINDRICAL_SURFACE ( 'NONE', #995, 4.000000000000000000 ) ;
#265 = AXIS2_PLACEMENT_3D ( 'NONE', #37, #516, #850 ) ;
#266 = CIRCLE ( 'NONE', #867, 4.000000000000000000 ) ;
#267 = AXIS2_PLACEMENT_3D ( 'NONE', #193, #520, #944 ) ;
#268 = CARTESIAN_POINT ( 'NONE',  ( 0.000000000000000000, 0.000000000000000000, 7.000000000000000000 ) ) ;
#269 = EDGE_CURVE ( 'NONE', #239, #845, #726, .T. ) ;
#270 = ORIENTED_EDGE ( 'NONE', *, *, #892, .F. ) ;
#271 = DIRECTION ( 'NONE',  ( -1.000000000000000000, 0.000000000000000000, 0.000000000000000000 ) ) ;
#272 = DIRECTION ( 'NONE',  ( 1.000000000000000000, 0.000000000000000000, 0.000000000000000000 ) ) ;
#273 = ADVANCED_FACE ( 'NONE', ( #442 ), #32, .T. ) ;
#274 = ORIENTED_EDGE ( 'NONE', *, *, #963, .T. ) ;
#275 = DIRECTION ( 'NONE',  ( -0.000000000000000000, -0.000000000000000000, 1.000000000000000000 ) ) ;
#276 = DIRECTION ( 'NONE',  ( -0.000000000000000000, -0.000000000000000000, 1.000000000000000000 ) ) ;
#277 = PLANE ( 'NONE',  #1062 ) ;
#278 = ORIENTED_EDGE ( 'NONE', *, *, #745, .F. ) ;
#279 = CARTESIAN_POINT ( 'NONE',  ( -2.933510730180067139, 23.71928571428572496, 10.00000000000000000 ) ) ;
#280 = AXIS2_PLACEMENT_3D ( 'NONE', #961, #376, #699 ) ;
#281 = PRODUCT_DEFINITION_CONTEXT ( 'detailed design', #822, 'design' ) ;
#282 = AXIS2_PLACEMENT_3D ( 'NONE', #884, #233, #719 ) ;
#283 = ORIENTED_EDGE ( 'NONE', *, *, #129, .T. ) ;
#284 = AXIS2_PLACEMENT_3D ( 'NONE', #41, #47, #204 ) ;
#285 = EDGE_CURVE ( 'NONE', #402, #1059, #774, .T. ) ;
#286 = DIRECTION ( 'NONE',  ( 0.000000000000000000, 0.000000000000000000, -1.000000000000000000 ) ) ;
#287 = DIRECTION ( 'NONE',  ( 0.000000000000000000, 0.7071067811865456854, 0.7071067811865493491 ) ) ;
#288 = EDGE_LOOP ( 'NONE', ( #137, #23, #208, #132, #214, #475 ) ) ;
#289 = ORIENTED_EDGE ( 'NONE', *, *, #792, .F. ) ;
#290 = DIRECTION ( 'NONE',  ( 0.000000000000000000, 0.000000000000000000, -1.000000000000000000 ) ) ;
#291 = CARTESIAN_POINT ( 'NONE',  ( 2.099999999999852207, -21.00000000000000000, 8.000000000000000000 ) ) ;
#292 = EDGE_CURVE ( 'NONE', #856, #373, #106, .T. ) ;
#293 = CARTESIAN_POINT ( 'NONE',  ( 0.000000000000000000, 0.000000000000000000, 4.000000000000000000 ) ) ;
#294 = ORIENTED_EDGE ( 'NONE', *, *, #178, .T. ) ;
#295 = DIRECTION ( 'NONE',  ( 1.000000000000000000, 0.000000000000000000, 0.000000000000000000 ) ) ;
#296 = DIRECTION ( 'NONE',  ( 0.000000000000000000, 0.000000000000000000, -1.000000000000000000 ) ) ;
#297 = CIRCLE ( 'NONE', #901, 19.00000000000000000 ) ;
#298 = ORIENTED_EDGE ( 'NONE', *, *, #269, .F. ) ;
#299 = EDGE_CURVE ( 'NONE', #4, #575, #200, .T. ) ;
#300 = STYLED_ITEM ( 'NONE', ( #261 ), #585 ) ;
#301 = AXIS2_PLACEMENT_3D ( 'NONE', #625, #226, #551 ) ;
#302 = DIRECTION ( 'NONE',  ( -0.000000000000000000, -0.000000000000000000, 1.000000000000000000 ) ) ;
#303 = DIRECTION ( 'NONE',  ( -0.000000000000000000, -0.000000000000000000, 1.000000000000000000 ) ) ;
#304 = ORIENTED_EDGE ( 'NONE', *, *, #814, .F. ) ;
#305 = CARTESIAN_POINT ( 'NONE',  ( 0.000000000000000000, 0.000000000000000000, 12.00000000000000000 ) ) ;
#306 = DIRECTION ( 'NONE',  ( 1.000000000000000000, 0.000000000000000000, 0.000000000000000000 ) ) ;
#307 = ORIENTED_EDGE ( 'NONE', *, *, #624, .F. ) ;
#308 = ORIENTED_EDGE ( 'NONE', *, *, #192, .T. ) ;
#309 = DIRECTION ( 'NONE',  ( 0.000000000000000000, 0.000000000000000000, -1.000000000000000000 ) ) ;
#310 = DIRECTION ( 'NONE',  ( 1.000000000000000000, 0.000000000000000000, 0.000000000000000000 ) ) ;
#311 = FACE_OUTER_BOUND ( 'NONE', #986, .T. ) ;
#312 = AXIS2_PLACEMENT_3D ( 'NONE', #94, #833, #1010 ) ;
#313 = VERTEX_POINT ( 'NONE', #694 ) ;
#314 = AXIS2_PLACEMENT_3D ( 'NONE', #751, #915, #169 ) ;
#315 = AXIS2_PLACEMENT_3D ( 'NONE', #210, #948, #449 ) ;
#316 = DIRECTION ( 'NONE',  ( -1.000000000000000000, -0.000000000000000000, -0.000000000000000000 ) ) ;
#317 = EDGE_CURVE ( 'NONE', #501, #222, #609, .T. ) ;
#318 = CARTESIAN_POINT ( 'NONE',  ( -1.481247163929606854E-13, -21.00000000000000000, 0.000000000000000000 ) ) ;
#319 = ORIENTED_EDGE ( 'NONE', *, *, #598, .F. ) ;
#320 = ORIENTED_EDGE ( 'NONE', *, *, #799, .T. ) ;
#321 = CARTESIAN_POINT ( 'NONE',  ( -2.100000000000148859, -21.00000000000000000, 8.000000000000000000 ) ) ;
#322 = DIRECTION ( 'NONE',  ( 1.000000000000000000, 0.000000000000000000, 0.000000000000000000 ) ) ;
#323 = EDGE_CURVE ( 'NONE', #253, #479, #487, .T. ) ;
#324 = ORIENTED_EDGE ( 'NONE', *, *, #292, .T. ) ;
#325 = VERTEX_POINT ( 'NONE', #194 ) ;
#326 = CARTESIAN_POINT ( 'NONE',  ( 0.000000000000000000, 0.000000000000000000, 12.00000000000000000 ) ) ;
#327 = AXIS2_PLACEMENT_3D ( 'NONE', #405, #162, #731 ) ;
#328 = LINE ( 'NONE', #250, #637 ) ;
#329 = DIRECTION ( 'NONE',  ( -0.000000000000000000, -0.000000000000000000, 1.000000000000000000 ) ) ;
#330 = DIRECTION ( 'NONE',  ( 0.000000000000000000, 0.000000000000000000, 1.000000000000000000 ) ) ;
#331 = ORIENTED_EDGE ( 'NONE', *, *, #591, .T. ) ;
#332 = EDGE_CURVE ( 'NONE', #402, #344, #958, .T. ) ;
#333 = ORIENTED_EDGE ( 'NONE', *, *, #225, .F. ) ;
#334 = LINE ( 'NONE', #83, #628 ) ;
#335 = VECTOR ( 'NONE', #131, 1000.000000000000000 ) ;
#336 =( NAMED_UNIT ( * ) SI_UNIT ( $, .STERADIAN. ) SOLID_ANGLE_UNIT ( ) );
#337 = AXIS2_PLACEMENT_3D ( 'NONE', #399, #878, #378 ) ;
#338 = CARTESIAN_POINT ( 'NONE',  ( 0.000000000000000000, 0.000000000000000000, 0.000000000000000000 ) ) ;
#339 = ORIENTED_EDGE ( 'NONE', *, *, #192, .F. ) ;
#340 = FACE_OUTER_BOUND ( 'NONE', #806, .T. ) ;
#341 = FACE_OUTER_BOUND ( 'NONE', #153, .T. ) ;
#342 = CARTESIAN_POINT ( 'NONE',  ( 0.6089803659953239023, 18.99023809523809447, 6.000000000000000000 ) ) ;
#343 = ADVANCED_BREP_SHAPE_REPRESENTATION ( 'LAB-001-020-110_00', ( #585, #463 ), #71 ) ;
#344 = VERTEX_POINT ( 'NONE', #211 ) ;
#345 = DIRECTION ( 'NONE',  ( 0.000000000000000000, 0.000000000000000000, 1.000000000000000000 ) ) ;
#346 = EDGE_CURVE ( 'NONE', #29, #253, #727, .T. ) ;
#347 = SURFACE_STYLE_USAGE ( .BOTH. , #1008 ) ;
#348 =( GEOMETRIC_REPRESENTATION_CONTEXT ( 3 ) GLOBAL_UNCERTAINTY_ASSIGNED_CONTEXT ( ( #1052 ) ) GLOBAL_UNIT_ASSIGNED_CONTEXT ( ( #191, #513, #433 ) ) REPRESENTATION_CONTEXT ( 'NONE', 'WORKASPACE' ) );
#349 = FACE_OUTER_BOUND ( 'NONE', #196, .T. ) ;
#350 = ORIENTED_EDGE ( 'NONE', *, *, #877, .T. ) ;
#351 = FACE_OUTER_BOUND ( 'NONE', #246, .T. ) ;
#352 = CIRCLE ( 'NONE', #450, 19.00000000000000000 ) ;
#353 = DIRECTION ( 'NONE',  ( -0.000000000000000000, -0.000000000000000000, -1.000000000000000000 ) ) ;
#354 = VECTOR ( 'NONE', #533, 1000.000000000000000 ) ;
#355 = EDGE_CURVE ( 'NONE', #607, #448, #976, .T. ) ;
#356 = VECTOR ( 'NONE', #1056, 1000.000000000000000 ) ;
#357 = DIRECTION ( 'NONE',  ( -0.000000000000000000, -0.000000000000000000, 1.000000000000000000 ) ) ;
#358 = VERTEX_POINT ( 'NONE', #79 ) ;
#359 = CARTESIAN_POINT ( 'NONE',  ( 0.000000000000000000, 0.000000000000000000, 0.000000000000000000 ) ) ;
#360 = CARTESIAN_POINT ( 'NONE',  ( 1.482500161549134971E-15, 21.00000000000000000, 8.000000000000000000 ) ) ;
#361 = DIRECTION ( 'NONE',  ( -1.000000000000000000, 0.000000000000000000, 0.000000000000000000 ) ) ;
#362 = ORIENTED_EDGE ( 'NONE', *, *, #987, .T. ) ;
#363 = FACE_OUTER_BOUND ( 'NONE', #1012, .T. ) ;
#364 = FACE_OUTER_BOUND ( 'NONE', #871, .T. ) ;
#365 = DIRECTION ( 'NONE',  ( 0.000000000000000000, 0.000000000000000000, -1.000000000000000000 ) ) ;
#366 = CIRCLE ( 'NONE', #515, 2.100000000000000977 ) ;
#367 = ORIENTED_EDGE ( 'NONE', *, *, #38, .T. ) ;
#368 = EDGE_CURVE ( 'NONE', #860, #222, #386, .T. ) ;
#369 =( NAMED_UNIT ( * ) SI_UNIT ( $, .STERADIAN. ) SOLID_ANGLE_UNIT ( ) );
#370 = CARTESIAN_POINT ( 'NONE',  ( -2.933510730180075132, 23.71928571428571431, 12.00000000000000000 ) ) ;
#371 = DIRECTION ( 'NONE',  ( 1.000000000000000000, 0.000000000000000000, 0.000000000000000000 ) ) ;
#372 = VECTOR ( 'NONE', #777, 1000.000000000000000 ) ;
#373 = VERTEX_POINT ( 'NONE', #1 ) ;
#374 = EDGE_CURVE ( 'NONE', #657, #508, #452, .T. ) ;
#375 = CARTESIAN_POINT ( 'NONE',  ( 21.21815260572889628, 15.00000000000002309, 12.00000000000000000 ) ) ;
#376 = DIRECTION ( 'NONE',  ( 0.000000000000000000, 0.000000000000000000, -1.000000000000000000 ) ) ;
#377 = EDGE_LOOP ( 'NONE', ( #392, #978, #114, #636 ) ) ;
#378 = DIRECTION ( 'NONE',  ( -1.000000000000000000, 0.000000000000000000, 0.000000000000000000 ) ) ;
#379 = ADVANCED_FACE ( 'NONE', ( #406 ), #707, .T. ) ;
#380 = DIRECTION ( 'NONE',  ( 0.000000000000000000, 0.000000000000000000, 1.000000000000000000 ) ) ;
#381 = ORIENTED_EDGE ( 'NONE', *, *, #754, .F. ) ;
#382 = DIRECTION ( 'NONE',  ( 1.000000000000000000, 0.000000000000000000, -0.000000000000000000 ) ) ;
#383 = DIRECTION ( 'NONE',  ( 0.000000000000000000, 0.000000000000000000, 1.000000000000000000 ) ) ;
#384 = VECTOR ( 'NONE', #116, 1000.000000000000000 ) ;
#385 = ORIENTED_EDGE ( 'NONE', *, *, #697, .T. ) ;
#386 = CIRCLE ( 'NONE', #46, 23.89999999999999858 ) ;
#387 = CIRCLE ( 'NONE', #284, 4.000000000000000000 ) ;
#388 = LINE ( 'NONE', #477, #1066 ) ;
#389 = CARTESIAN_POINT ( 'NONE',  ( 0.000000000000000000, 0.000000000000000000, 4.000000000000000000 ) ) ;
#390 = UNCERTAINTY_MEASURE_WITH_UNIT (LENGTH_MEASURE( 1.000000000000000082E-05 ), #696, 'distance_accuracy_value', 'NONE');
#391 = LINE ( 'NONE', #715, #939 ) ;
#392 = ORIENTED_EDGE ( 'NONE', *, *, #631, .F. ) ;
#393 = DIRECTION ( 'NONE',  ( -0.000000000000000000, -0.000000000000000000, 1.000000000000000000 ) ) ;
#394 = DIRECTION ( 'NONE',  ( -0.000000000000000000, -0.000000000000000000, 1.000000000000000000 ) ) ;
#395 = ORIENTED_EDGE ( 'NONE', *, *, #170, .T. ) ;
#396 = ORIENTED_EDGE ( 'NONE', *, *, #665, .T. ) ;
#397 = ORIENTED_EDGE ( 'NONE', *, *, #641, .F. ) ;
#398 = EDGE_CURVE ( 'NONE', #616, #29, #781, .T. ) ;
#399 = CARTESIAN_POINT ( 'NONE',  ( 0.000000000000000000, 0.000000000000000000, 4.000000000000000000 ) ) ;
#400 = CARTESIAN_POINT ( 'NONE',  ( -15.49193338482966809, 10.99999999999999645, 4.000000000000000000 ) ) ;
#401 = ORIENTED_EDGE ( 'NONE', *, *, #1061, .T. ) ;
#402 = VERTEX_POINT ( 'NONE', #890 ) ;
#403 = VECTOR ( 'NONE', #286, 1000.000000000000000 ) ;
#404 = EDGE_CURVE ( 'NONE', #179, #479, #635, .T. ) ;
#405 = CARTESIAN_POINT ( 'NONE',  ( -2.641584726159505513E-13, -21.00000000000000000, 12.00000000000000000 ) ) ;
#406 = FACE_OUTER_BOUND ( 'NONE', #377, .T. ) ;
#407 = CARTESIAN_POINT ( 'NONE',  ( 0.000000000000000000, 0.000000000000000000, 12.00000000000000000 ) ) ;
#408 = EDGE_LOOP ( 'NONE', ( #643, #56, #324, #906 ) ) ;
#409 = CARTESIAN_POINT ( 'NONE',  ( 0.000000000000000000, 0.000000000000000000, 7.000000000000000000 ) ) ;
#410 = PLANE ( 'NONE',  #505 ) ;
#411 = EDGE_CURVE ( 'NONE', #695, #1049, #221, .T. ) ;
#412 = DIRECTION ( 'NONE',  ( -1.000000000000000000, 0.000000000000000000, 0.000000000000000000 ) ) ;
#413 = ORIENTED_EDGE ( 'NONE', *, *, #519, .T. ) ;
#414 = ORIENTED_EDGE ( 'NONE', *, *, #711, .T. ) ;
#415 = DIRECTION ( 'NONE',  ( 0.000000000000000000, 0.000000000000000000, 1.000000000000000000 ) ) ;
#416 = AXIS2_PLACEMENT_3D ( 'NONE', #254, #576, #1036 ) ;
#417 = DIRECTION ( 'NONE',  ( 0.000000000000000000, 0.000000000000000000, 1.000000000000000000 ) ) ;
#418 = DIRECTION ( 'NONE',  ( 0.000000000000000000, 0.000000000000000000, -1.000000000000000000 ) ) ;
#419 = ADVANCED_FACE ( 'NONE', ( #980 ), #626, .F. ) ;
#420 = EDGE_LOOP ( 'NONE', ( #397, #534, #145, #122, #148, #144, #189, #69 ) ) ;
#421 = AXIS2_PLACEMENT_3D ( 'NONE', #293, #685, #870 ) ;
#422 = DIRECTION ( 'NONE',  ( 1.000000000000000000, 0.000000000000000000, 0.000000000000000000 ) ) ;
#423 = AXIS2_PLACEMENT_3D ( 'NONE', #360, #51, #782 ) ;
#424 = CARTESIAN_POINT ( 'NONE',  ( 0.000000000000000000, 0.000000000000000000, 12.00000000000000000 ) ) ;
#425 = CARTESIAN_POINT ( 'NONE',  ( 1.482500161549134971E-15, 21.00000000000000000, 8.000000000000000000 ) ) ;
#426 = ORIENTED_EDGE ( 'NONE', *, *, #260, .T. ) ;
#427 = FACE_OUTER_BOUND ( 'NONE', #461, .T. ) ;
#428 = LINE ( 'NONE', #763, #485 ) ;
#429 = ORIENTED_EDGE ( 'NONE', *, *, #355, .T. ) ;
#430 = CARTESIAN_POINT ( 'NONE',  ( -19.60943498125589812, 13.75618328736259066, 10.75618328736257112 ) ) ;
#431 = CARTESIAN_POINT ( 'NONE',  ( 0.000000000000000000, 0.000000000000000000, 7.000000000000000000 ) ) ;
#432 = ORIENTED_EDGE ( 'NONE', *, *, #219, .T. ) ;
#433 =( NAMED_UNIT ( * ) SI_UNIT ( $, .STERADIAN. ) SOLID_ANGLE_UNIT ( ) );
#434 = VECTOR ( 'NONE', #954, 1000.000000000000000 ) ;
#435 = CARTESIAN_POINT ( 'NONE',  ( -2.100000000000000089, 21.00000000000000000, 0.000000000000000000 ) ) ;
#436 = AXIS2_PLACEMENT_3D ( 'NONE', #1051, #622, #472 ) ;
#437 = AXIS2_PLACEMENT_3D ( 'NONE', #92, #749, #422 ) ;
#438 = CARTESIAN_POINT ( 'NONE',  ( -2.100000000000000089, 21.00000000000000000, 8.000000000000000000 ) ) ;
#439 = ORIENTED_EDGE ( 'NONE', *, *, #641, .T. ) ;
#440 = DIRECTION ( 'NONE',  ( 0.000000000000000000, 0.000000000000000000, 1.000000000000000000 ) ) ;
#441 = CARTESIAN_POINT ( 'NONE',  ( 0.6089803659951907866, -18.99023809523809803, 7.000000000000000000 ) ) ;
#442 = FACE_OUTER_BOUND ( 'NONE', #717, .T. ) ;
#443 = EDGE_CURVE ( 'NONE', #620, #373, #12, .T. ) ;
#444 = VERTEX_POINT ( 'NONE', #65 ) ;
#445 = CARTESIAN_POINT ( 'NONE',  ( 2.933510730179778037, -23.71928571428575339, 8.000000000000000000 ) ) ;
#446 = CARTESIAN_POINT ( 'NONE',  ( 4.000000000000001776, 21.00000000000000000, 8.000000000000000000 ) ) ;
#447 = ADVANCED_FACE ( 'NONE', ( #1065 ), #640, .T. ) ;
#448 = VERTEX_POINT ( 'NONE', #564 ) ;
#449 = DIRECTION ( 'NONE',  ( 1.000000000000000000, 0.000000000000000000, 0.000000000000000000 ) ) ;
#450 = AXIS2_PLACEMENT_3D ( 'NONE', #743, #920, #412 ) ;
#451 = DIRECTION ( 'NONE',  ( 1.000000000000000000, 0.000000000000000000, 0.000000000000000000 ) ) ;
#452 = CIRCLE ( 'NONE', #28, 2.100000000000000533 ) ;
#453 = AXIS2_PLACEMENT_3D ( 'NONE', #57, #140, #973 ) ;
#454 = VERTEX_POINT ( 'NONE', #217 ) ;
#455 = EDGE_CURVE ( 'NONE', #444, #24, #975, .T. ) ;
#456 = CARTESIAN_POINT ( 'NONE',  ( -21.21815260572889628, 11.00000000000000000, 4.000000000000000000 ) ) ;
#457 = DIRECTION ( 'NONE',  ( -1.000000000000000000, 0.000000000000000000, 0.000000000000000000 ) ) ;
#458 = ORIENTED_EDGE ( 'NONE', *, *, #711, .F. ) ;
#459 = PLANE ( 'NONE',  #14 ) ;
#460 = DIRECTION ( 'NONE',  ( 1.000000000000000000, 0.000000000000000000, 0.000000000000000000 ) ) ;
#461 = EDGE_LOOP ( 'NONE', ( #103, #817, #362, #739 ) ) ;
#462 = CIRCLE ( 'NONE', #40, 23.89999999999999858 ) ;
#463 = AXIS2_PLACEMENT_3D ( 'NONE', #359, #330, #655 ) ;
#464 =( BOUNDED_CURVE ( )  B_SPLINE_CURVE ( 3, ( #797, #59, #227, #553 ),
 .UNSPECIFIED., .F., .F. ) 
 B_SPLINE_CURVE_WITH_KNOTS ( ( 4, 4 ),
 ( 5.190666934922091080, 5.390874985583979928 ),
 .UNSPECIFIED. ) 
 CURVE ( )  GEOMETRIC_REPRESENTATION_ITEM ( )  RATIONAL_B_SPLINE_CURVE ( ( 1.000000000000000000, 0.9966625164601562448, 0.9966625164601562448, 1.000000000000000000 ) ) 
 REPRESENTATION_ITEM ( '' )  );
#465 = CARTESIAN_POINT ( 'NONE',  ( -21.21815260572889628, -15.00000000000002309, 12.00000000000000000 ) ) ;
#466 = CARTESIAN_POINT ( 'NONE',  ( -0.6089803659954564630, -18.99023809523809092, 6.000000000000000000 ) ) ;
#467 = VECTOR ( 'NONE', #329, 1000.000000000000000 ) ;
#468 = EDGE_LOOP ( 'NONE', ( #929, #524 ) ) ;
#469 = CIRCLE ( 'NONE', #139, 2.100000000000000977 ) ;
#470 = EDGE_LOOP ( 'NONE', ( #583, #166, #722, #229, #307, #458, #82, #840 ) ) ;
#471 = LINE ( 'NONE', #790, #820 ) ;
#472 = DIRECTION ( 'NONE',  ( 1.000000000000000000, 0.000000000000000000, -0.000000000000000000 ) ) ;
#473 = VERTEX_POINT ( 'NONE', #793 ) ;
#474 = EDGE_CURVE ( 'NONE', #561, #845, #464, .T. ) ;
#475 = ORIENTED_EDGE ( 'NONE', *, *, #535, .F. ) ;
#476 = ORIENTED_EDGE ( 'NONE', *, *, #828, .F. ) ;
#477 = CARTESIAN_POINT ( 'NONE',  ( 2.099999999999852207, -21.00000000000000000, 0.000000000000000000 ) ) ;
#478 = CYLINDRICAL_SURFACE ( 'NONE', #1064, 4.000000000000000000 ) ;
#479 = VERTEX_POINT ( 'NONE', #879 ) ;
#480 = EDGE_CURVE ( 'NONE', #789, #575, #693, .T. ) ;
#481 = ORIENTED_EDGE ( 'NONE', *, *, #848, .F. ) ;
#482 = PLANE ( 'NONE',  #960 ) ;
#483 = DIRECTION ( 'NONE',  ( 0.000000000000000000, 0.000000000000000000, -1.000000000000000000 ) ) ;
#484 = CARTESIAN_POINT ( 'NONE',  ( -0.6089803659953225701, 18.99023809523809447, 0.000000000000000000 ) ) ;
#485 = VECTOR ( 'NONE', #927, 1000.000000000000000 ) ;
#486 = ORIENTED_EDGE ( 'NONE', *, *, #848, .T. ) ;
#487 = CIRCLE ( 'NONE', #1045, 4.000000000000000000 ) ;
#488 = CIRCLE ( 'NONE', #437, 2.100000000000000977 ) ;
#489 = FACE_OUTER_BOUND ( 'NONE', #1054, .T. ) ;
#490 = ADVANCED_FACE ( 'NONE', ( #142 ), #478, .F. ) ;
#491 = DIRECTION ( 'NONE',  ( 1.000000000000000000, 0.000000000000000000, -0.000000000000000000 ) ) ;
#492 = VERTEX_POINT ( 'NONE', #72 ) ;
#493 = ORIENTED_EDGE ( 'NONE', *, *, #206, .F. ) ;
#494 = FACE_OUTER_BOUND ( 'NONE', #18, .T. ) ;
#495 = DIRECTION ( 'NONE',  ( 1.000000000000000000, 0.000000000000000000, 0.000000000000000000 ) ) ;
#496 = ORIENTED_EDGE ( 'NONE', *, *, #355, .F. ) ;
#497 = FACE_BOUND ( 'NONE', #880, .T. ) ;
#498 = FACE_OUTER_BOUND ( 'NONE', #408, .T. ) ;
#499 = PRODUCT_DEFINITION ( 'UNKNOWN', '', #847, #281 ) ;
#500 = DIRECTION ( 'NONE',  ( -1.000000000000000000, 0.000000000000000000, 0.000000000000000000 ) ) ;
#501 = VERTEX_POINT ( 'NONE', #400 ) ;
#502 = CLOSED_SHELL ( 'NONE', ( #419, #864, #928, #490, #724, #943, #897, #949, #104, #842, #603, #542, #527, #1009, #914, #134, #155, #447, #212, #379, #956, #1032, #560, #872, #1038, #273, #1017, #1055, #8 ) ) ;
#503 = AXIS2_PLACEMENT_3D ( 'NONE', #268, #418, #829 ) ;
#504 = DIRECTION ( 'NONE',  ( 0.000000000000000000, 0.000000000000000000, -1.000000000000000000 ) ) ;
#505 = AXIS2_PLACEMENT_3D ( 'NONE', #737, #158, #491 ) ;
#506 = DIRECTION ( 'NONE',  ( 0.000000000000000000, 0.000000000000000000, 1.000000000000000000 ) ) ;
#507 = EDGE_CURVE ( 'NONE', #735, #860, #725, .T. ) ;
#508 = VERTEX_POINT ( 'NONE', #816 ) ;
#509 = CARTESIAN_POINT ( 'NONE',  ( -2.641584726159505513E-13, -21.00000000000000000, 8.000000000000000000 ) ) ;
#510 = CYLINDRICAL_SURFACE ( 'NONE', #922, 25.25000000000000000 ) ;
#511 = CYLINDRICAL_SURFACE ( 'NONE', #866, 23.89999999999999858 ) ;
#512 = ORIENTED_EDGE ( 'NONE', *, *, #732, .T. ) ;
#513 =( NAMED_UNIT ( * ) PLANE_ANGLE_UNIT ( ) SI_UNIT ( $, .RADIAN. ) );
#514 = CARTESIAN_POINT ( 'NONE',  ( 15.49193338482966809, 11.00000000000000000, 7.000000000000000000 ) ) ;
#515 = AXIS2_PLACEMENT_3D ( 'NONE', #611, #1025, #118 ) ;
#516 = DIRECTION ( 'NONE',  ( 0.000000000000000000, 0.000000000000000000, 1.000000000000000000 ) ) ;
#517 = ORIENTED_EDGE ( 'NONE', *, *, #62, .T. ) ;
#518 = ORIENTED_EDGE ( 'NONE', *, *, #799, .F. ) ;
#519 = EDGE_CURVE ( 'NONE', #700, #1035, #992, .T. ) ;
#520 = DIRECTION ( 'NONE',  ( -0.000000000000000000, -0.000000000000000000, 1.000000000000000000 ) ) ;
#521 = AXIS2_PLACEMENT_3D ( 'NONE', #163, #756, #26 ) ;
#522 = VECTOR ( 'NONE', #953, 1000.000000000000000 ) ;
#523 = CARTESIAN_POINT ( 'NONE',  ( 1.482500161549134971E-15, 21.00000000000000000, 12.00000000000000000 ) ) ;
#524 = ORIENTED_EDGE ( 'NONE', *, *, #834, .F. ) ;
#525 = SURFACE_STYLE_FILL_AREA ( #593 ) ;
#526 = LINE ( 'NONE', #862, #783 ) ;
#527 = ADVANCED_FACE ( 'NONE', ( #89 ), #6, .F. ) ;
#528 = CARTESIAN_POINT ( 'NONE',  ( -15.49193338482966809, -11.00000000000000000, 7.000000000000000000 ) ) ;
#529 = ORIENTED_EDGE ( 'NONE', *, *, #143, .F. ) ;
#530 = DIRECTION ( 'NONE',  ( 0.000000000000000000, 0.000000000000000000, 1.000000000000000000 ) ) ;
#531 = PRODUCT_DEFINITION_SHAPE ( 'NONE', 'NONE',  #499 ) ;
#532 = CIRCLE ( 'NONE', #416, 19.00000000000000000 ) ;
#533 = DIRECTION ( 'NONE',  ( -1.000000000000000000, -0.000000000000000000, -0.000000000000000000 ) ) ;
#534 = ORIENTED_EDGE ( 'NONE', *, *, #814, .T. ) ;
#535 = EDGE_CURVE ( 'NONE', #760, #1049, #108, .T. ) ;
#536 = DIRECTION ( 'NONE',  ( 0.000000000000000000, 0.000000000000000000, 1.000000000000000000 ) ) ;
#537 = VECTOR ( 'NONE', #371, 1000.000000000000000 ) ;
#538 = DIRECTION ( 'NONE',  ( 1.000000000000000000, 0.000000000000000000, 0.000000000000000000 ) ) ;
#539 = COLOUR_RGB ( '',1.000000000000000000, 1.000000000000000000, 1.000000000000000000 ) ;
#540 = VECTOR ( 'NONE', #415, 1000.000000000000000 ) ;
#541 = EDGE_LOOP ( 'NONE', ( #971, #778, #903, #1022 ) ) ;
#542 = ADVANCED_FACE ( 'NONE', ( #341 ), #410, .T. ) ;
#543 = FACE_BOUND ( 'NONE', #95, .T. ) ;
#544 = DIRECTION ( 'NONE',  ( 0.000000000000000000, 0.000000000000000000, -1.000000000000000000 ) ) ;
#545 = ORIENTED_EDGE ( 'NONE', *, *, #998, .F. ) ;
#546 = LINE ( 'NONE', #967, #215 ) ;
#547 = DIRECTION ( 'NONE',  ( 1.000000000000000000, 0.000000000000000000, 0.000000000000000000 ) ) ;
#548 = ORIENTED_EDGE ( 'NONE', *, *, #332, .T. ) ;
#549 = VECTOR ( 'NONE', #440, 1000.000000000000000 ) ;
#550 = VERTEX_POINT ( 'NONE', #181 ) ;
#551 = DIRECTION ( 'NONE',  ( 1.000000000000000000, 0.000000000000000000, 0.000000000000000000 ) ) ;
#552 = EDGE_CURVE ( 'NONE', #3, #39, #1058, .T. ) ;
#553 = CARTESIAN_POINT ( 'NONE',  ( 18.60671921645509030, -15.00000000000002309, 12.00000000000000000 ) ) ;
#554 = CIRCLE ( 'NONE', #93, 23.89999999999999858 ) ;
#555 = ORIENTED_EDGE ( 'NONE', *, *, #368, .T. ) ;
#556 = AXIS2_PLACEMENT_3D ( 'NONE', #863, #380, #120 ) ;
#557 = ORIENTED_EDGE ( 'NONE', *, *, #84, .F. ) ;
#558 = CARTESIAN_POINT ( 'NONE',  ( -1.481247163929606854E-13, -21.00000000000000000, 0.000000000000000000 ) ) ;
#559 = DIRECTION ( 'NONE',  ( -1.000000000000000000, 0.000000000000000000, 0.000000000000000000 ) ) ;
#560 = ADVANCED_FACE ( 'NONE', ( #85 ), #742, .F. ) ;
#561 = VERTEX_POINT ( 'NONE', #824 ) ;
#562 = ORIENTED_EDGE ( 'NONE', *, *, #998, .T. ) ;
#563 = LINE ( 'NONE', #70, #800 ) ;
#564 = CARTESIAN_POINT ( 'NONE',  ( 0.6089803659951883441, -18.99023809523809803, 0.000000000000000000 ) ) ;
#565 = ORIENTED_EDGE ( 'NONE', *, *, #33, .T. ) ;
#566 = ORIENTED_EDGE ( 'NONE', *, *, #129, .F. ) ;
#567 = PLANE ( 'NONE',  #791 ) ;
#568 = ORIENTED_EDGE ( 'NONE', *, *, #398, .F. ) ;
#569 = AXIS2_PLACEMENT_3D ( 'NONE', #42, #1027, #606 ) ;
#570 = ORIENTED_EDGE ( 'NONE', *, *, #317, .T. ) ;
#571 = EDGE_CURVE ( 'NONE', #682, #473, #328, .T. ) ;
#572 = FACE_OUTER_BOUND ( 'NONE', #653, .T. ) ;
#573 = FILL_AREA_STYLE_COLOUR ( '', #539 ) ;
#574 = CARTESIAN_POINT ( 'NONE',  ( 2.100000000000002309, 21.00000000000000000, 0.000000000000000000 ) ) ;
#575 = VERTEX_POINT ( 'NONE', #1004 ) ;
#576 = DIRECTION ( 'NONE',  ( 0.000000000000000000, 0.000000000000000000, -1.000000000000000000 ) ) ;
#577 = DIRECTION ( 'NONE',  ( 0.000000000000000000, 0.000000000000000000, 1.000000000000000000 ) ) ;
#578 = CARTESIAN_POINT ( 'NONE',  ( -2.641584726159505513E-13, -21.00000000000000000, 12.00000000000000000 ) ) ;
#579 = ORIENTED_EDGE ( 'NONE', *, *, #671, .F. ) ;
#580 = CARTESIAN_POINT ( 'NONE',  ( -34.94592146739513083, -11.00000000000000000, 4.000000000000000000 ) ) ;
#581 = DIRECTION ( 'NONE',  ( 1.000000000000000000, 0.000000000000000000, 0.000000000000000000 ) ) ;
#582 = DIRECTION ( 'NONE',  ( 1.000000000000000000, 0.000000000000000000, 0.000000000000000000 ) ) ;
#583 = ORIENTED_EDGE ( 'NONE', *, *, #686, .F. ) ;
#584 = CIRCLE ( 'NONE', #656, 19.00000000000000000 ) ;
#585 = MANIFOLD_SOLID_BREP ( 'Cut-Extrude8', #502 ) ;
#586 = AXIS2_PLACEMENT_3D ( 'NONE', #135, #633, #874 ) ;
#587 = LINE ( 'NONE', #580, #709 ) ;
#588 = VECTOR ( 'NONE', #271, 1000.000000000000000 ) ;
#589 = CARTESIAN_POINT ( 'NONE',  ( 1.482500161549134971E-15, 21.00000000000000000, 8.000000000000000000 ) ) ;
#590 = DIRECTION ( 'NONE',  ( 0.000000000000000000, 0.000000000000000000, 1.000000000000000000 ) ) ;
#591 = EDGE_CURVE ( 'NONE', #700, #492, #708, .T. ) ;
#592 = ORIENTED_EDGE ( 'NONE', *, *, #647, .F. ) ;
#593 = FILL_AREA_STYLE ('',( #198 ) ) ;
#594 = APPLICATION_CONTEXT ( 'automotive_design' ) ;
#595 = CARTESIAN_POINT ( 'NONE',  ( -2.933510730180075132, 23.71928571428571431, 8.000000000000000000 ) ) ;
#596 = CARTESIAN_POINT ( 'NONE',  ( 18.60671921645509030, 15.00000000000002309, 12.00000000000000000 ) ) ;
#597 = ORIENTED_EDGE ( 'NONE', *, *, #346, .T. ) ;
#598 = EDGE_CURVE ( 'NONE', #933, #642, #658, .T. ) ;
#599 = CARTESIAN_POINT ( 'NONE',  ( -15.49193338482966809, -10.99999999999999645, 4.000000000000000000 ) ) ;
#600 = CARTESIAN_POINT ( 'NONE',  ( -0.6089803659953213488, 18.99023809523809447, 6.000000000000000000 ) ) ;
#601 = ORIENTED_EDGE ( 'NONE', *, *, #1043, .F. ) ;
#602 = FACE_OUTER_BOUND ( 'NONE', #470, .T. ) ;
#603 = ADVANCED_FACE ( 'NONE', ( #498 ), #510, .T. ) ;
#604 = AXIS2_PLACEMENT_3D ( 'NONE', #86, #1005, #272 ) ;
#605 = LINE ( 'NONE', #849, #940 ) ;
#606 = DIRECTION ( 'NONE',  ( -1.000000000000000000, 0.000000000000000000, -0.000000000000000000 ) ) ;
#607 = VERTEX_POINT ( 'NONE', #666 ) ;
#608 = CARTESIAN_POINT ( 'NONE',  ( -18.60671921645509030, -15.00000000000002309, 12.00000000000000000 ) ) ;
#609 = LINE ( 'NONE', #937, #354 ) ;
#610 = ORIENTED_EDGE ( 'NONE', *, *, #178, .F. ) ;
#611 = CARTESIAN_POINT ( 'NONE',  ( 1.482500161549134971E-15, 21.00000000000000000, 0.000000000000000000 ) ) ;
#612 = ORIENTED_EDGE ( 'NONE', *, *, #123, .F. ) ;
#613 = CARTESIAN_POINT ( 'NONE',  ( -2.100000000000148859, -21.00000000000000000, 0.000000000000000000 ) ) ;
#614 = CARTESIAN_POINT ( 'NONE',  ( 2.933510730179778037, -23.71928571428575339, 12.00000000000000000 ) ) ;
#615 = EDGE_CURVE ( 'NONE', #492, #29, #838, .T. ) ;
#616 = VERTEX_POINT ( 'NONE', #370 ) ;
#617 = LINE ( 'NONE', #889, #942 ) ;
#618 = CARTESIAN_POINT ( 'NONE',  ( -34.94592146739513083, -11.00000000000000000, 7.000000000000000000 ) ) ;
#619 = AXIS2_PLACEMENT_3D ( 'NONE', #804, #714, #306 ) ;
#620 = VERTEX_POINT ( 'NONE', #689 ) ;
#621 = CARTESIAN_POINT ( 'NONE',  ( 3.999999999999735323, -21.00000000000000000, 8.000000000000000000 ) ) ;
#622 = DIRECTION ( 'NONE',  ( 0.000000000000000000, -0.7071067811865456854, 0.7071067811865493491 ) ) ;
#623 = DIRECTION ( 'NONE',  ( 1.000000000000000000, 0.000000000000000000, 0.000000000000000000 ) ) ;
#624 = EDGE_CURVE ( 'NONE', #448, #629, #605, .T. ) ;
#625 = CARTESIAN_POINT ( 'NONE',  ( -1.481247163929606854E-13, -21.00000000000000000, 0.000000000000000000 ) ) ;
#626 = CYLINDRICAL_SURFACE ( 'NONE', #586, 2.100000000000000977 ) ;
#627 = VERTEX_POINT ( 'NONE', #435 ) ;
#628 = VECTOR ( 'NONE', #243, 1000.000000000000000 ) ;
#629 = VERTEX_POINT ( 'NONE', #441 ) ;
#630 = ORIENTED_EDGE ( 'NONE', *, *, #474, .F. ) ;
#631 = EDGE_CURVE ( 'NONE', #179, #735, #60, .T. ) ;
#632 = DIRECTION ( 'NONE',  ( -0.000000000000000000, -0.000000000000000000, -1.000000000000000000 ) ) ;
#633 = DIRECTION ( 'NONE',  ( -0.000000000000000000, -0.000000000000000000, 1.000000000000000000 ) ) ;
#634 = CIRCLE ( 'NONE', #604, 23.89999999999999858 ) ;
#635 = CIRCLE ( 'NONE', #1011, 23.89999999999999858 ) ;
#636 = ORIENTED_EDGE ( 'NONE', *, *, #716, .F. ) ;
#637 = VECTOR ( 'NONE', #652, 1000.000000000000000 ) ;
#638 = ORIENTED_EDGE ( 'NONE', *, *, #2, .T. ) ;
#639 = CARTESIAN_POINT ( 'NONE',  ( 1.482500161549134971E-15, 21.00000000000000000, 0.000000000000000000 ) ) ;
#640 = CYLINDRICAL_SURFACE ( 'NONE', #818, 23.89999999999999858 ) ;
#641 = EDGE_CURVE ( 'NONE', #627, #4, #469, .T. ) ;
#642 = VERTEX_POINT ( 'NONE', #291 ) ;
#643 = ORIENTED_EDGE ( 'NONE', *, *, #761, .F. ) ;
#644 = FACE_OUTER_BOUND ( 'NONE', #983, .T. ) ;
#645 = CARTESIAN_POINT ( 'NONE',  ( 0.000000000000000000, 0.000000000000000000, 0.000000000000000000 ) ) ;
#646 = CARTESIAN_POINT ( 'NONE',  ( -3.999999999999998224, 21.00000000000000000, 12.00000000000000000 ) ) ;
#647 = EDGE_CURVE ( 'NONE', #224, #1035, #885, .T. ) ;
#648 = ORIENTED_EDGE ( 'NONE', *, *, #680, .T. ) ;
#649 = ORIENTED_EDGE ( 'NONE', *, *, #1043, .T. ) ;
#650 = COLOUR_RGB ( '',1.000000000000000000, 1.000000000000000000, 1.000000000000000000 ) ;
#651 = CARTESIAN_POINT ( 'NONE',  ( 0.000000000000000000, 0.000000000000000000, 7.000000000000000000 ) ) ;
#652 = DIRECTION ( 'NONE',  ( -1.000000000000000000, 0.000000000000000000, 0.000000000000000000 ) ) ;
#653 = EDGE_LOOP ( 'NONE', ( #875, #34 ) ) ;
#654 = CARTESIAN_POINT ( 'NONE',  ( 15.49193338482966809, 10.99999999999999645, 4.000000000000000000 ) ) ;
#655 = DIRECTION ( 'NONE',  ( 1.000000000000000000, 0.000000000000000000, 0.000000000000000000 ) ) ;
#656 = AXIS2_PLACEMENT_3D ( 'NONE', #61, #891, #965 ) ;
#657 = VERTEX_POINT ( 'NONE', #613 ) ;
#658 = CIRCLE ( 'NONE', #314, 2.100000000000000533 ) ;
#659 = CIRCLE ( 'NONE', #315, 4.000000000000000000 ) ;
#660 = DIRECTION ( 'NONE',  ( 0.000000000000000000, -0.000000000000000000, 1.000000000000000000 ) ) ;
#661 = CARTESIAN_POINT ( 'NONE',  ( 0.000000000000000000, 0.000000000000000000, 8.000000000000000000 ) ) ;
#662 = DIRECTION ( 'NONE',  ( 0.000000000000000000, 0.000000000000000000, -1.000000000000000000 ) ) ;
#663 = VERTEX_POINT ( 'NONE', #445 ) ;
#664 = DIRECTION ( 'NONE',  ( 1.000000000000000000, 0.000000000000000000, 0.000000000000000000 ) ) ;
#665 = EDGE_CURVE ( 'NONE', #771, #695, #266, .T. ) ;
#666 = CARTESIAN_POINT ( 'NONE',  ( 0.6089803659953251236, 18.99023809523809447, 0.000000000000000000 ) ) ;
#667 = DIRECTION ( 'NONE',  ( 0.000000000000000000, 0.000000000000000000, -1.000000000000000000 ) ) ;
#668 = ORIENTED_EDGE ( 'NONE', *, *, #84, .T. ) ;
#669 = AXIS2_PLACEMENT_3D ( 'NONE', #10, #96, #259 ) ;
#670 = DIRECTION ( 'NONE',  ( -1.000000000000000000, 0.000000000000000000, 0.000000000000000000 ) ) ;
#671 = EDGE_CURVE ( 'NONE', #550, #402, #1026, .T. ) ;
#672 = CARTESIAN_POINT ( 'NONE',  ( 25.25000000000000000, 3.092233167847066830E-15, 4.000000000000000000 ) ) ;
#673 = ORIENTED_EDGE ( 'NONE', *, *, #38, .F. ) ;
#674 = CIRCLE ( 'NONE', #421, 19.00000000000000000 ) ;
#675 = AXIS2_PLACEMENT_3D ( 'NONE', #645, #147, #460 ) ;
#676 = PLANE ( 'NONE',  #1023 ) ;
#677 = CARTESIAN_POINT ( 'NONE',  ( -1.481247163929606854E-13, -21.00000000000000000, 0.000000000000000000 ) ) ;
#678 = EDGE_CURVE ( 'NONE', #222, #3, #111, .T. ) ;
#679 = LINE ( 'NONE', #342, #43 ) ;
#680 = EDGE_CURVE ( 'NONE', #830, #550, #168, .T. ) ;
#681 = PRODUCT ( 'LAB-001-020-110_00', 'LAB-001-020-110_00', '', ( #904 ) ) ;
#682 = VERTEX_POINT ( 'NONE', #514 ) ;
#683 = LINE ( 'NONE', #1014, #549 ) ;
#684 = CARTESIAN_POINT ( 'NONE',  ( -21.21815260572889628, -11.00000000000000000, 4.000000000000000000 ) ) ;
#685 = DIRECTION ( 'NONE',  ( 0.000000000000000000, 0.000000000000000000, -1.000000000000000000 ) ) ;
#686 = EDGE_CURVE ( 'NONE', #657, #933, #526, .T. ) ;
#687 = ORIENTED_EDGE ( 'NONE', *, *, #647, .T. ) ;
#688 = CARTESIAN_POINT ( 'NONE',  ( 0.000000000000000000, 0.000000000000000000, 7.000000000000000000 ) ) ;
#689 = CARTESIAN_POINT ( 'NONE',  ( 25.25000000000000000, 3.092233167847066830E-15, 0.000000000000000000 ) ) ;
#690 = CARTESIAN_POINT ( 'NONE',  ( 4.000000000000001776, 21.00000000000000000, 12.00000000000000000 ) ) ;
#691 = ORIENTED_EDGE ( 'NONE', *, *, #552, .T. ) ;
#692 = CARTESIAN_POINT ( 'NONE',  ( -2.641584726159505513E-13, -21.00000000000000000, 8.000000000000000000 ) ) ;
#693 = CIRCLE ( 'NONE', #282, 2.100000000000000977 ) ;
#694 = CARTESIAN_POINT ( 'NONE',  ( -2.933510730180376225, -23.71928571428567523, 12.00000000000000000 ) ) ;
#695 = VERTEX_POINT ( 'NONE', #787 ) ;
#696 =( LENGTH_UNIT ( ) NAMED_UNIT ( * ) SI_UNIT ( .MILLI., .METRE. ) );
#697 = EDGE_CURVE ( 'NONE', #39, #179, #125, .T. ) ;
#698 = CARTESIAN_POINT ( 'NONE',  ( 21.21815260572889628, 11.00000000000000000, 7.999999999999996447 ) ) ;
#699 = DIRECTION ( 'NONE',  ( -1.000000000000000000, 0.000000000000000000, 0.000000000000000000 ) ) ;
#700 = VERTEX_POINT ( 'NONE', #595 ) ;
#701 = CARTESIAN_POINT ( 'NONE',  ( 18.60671921645509030, -15.00000000000002309, 12.00000000000000000 ) ) ;
#702 = EDGE_CURVE ( 'NONE', #695, #454, #659, .T. ) ;
#703 = CARTESIAN_POINT ( 'NONE',  ( 0.000000000000000000, 0.000000000000000000, 7.000000000000000000 ) ) ;
#704 = ORIENTED_EDGE ( 'NONE', *, *, #368, .F. ) ;
#705 = DIRECTION ( 'NONE',  ( 0.000000000000000000, 0.000000000000000000, 1.000000000000000000 ) ) ;
#706 = AXIS2_PLACEMENT_3D ( 'NONE', #578, #506, #582 ) ;
#707 = PLANE ( 'NONE',  #436 ) ;
#708 = CIRCLE ( 'NONE', #853, 4.000000000000000000 ) ;
#709 = VECTOR ( 'NONE', #823, 1000.000000000000000 ) ;
#710 = DIRECTION ( 'NONE',  ( 0.000000000000000000, 0.000000000000000000, 1.000000000000000000 ) ) ;
#711 = EDGE_CURVE ( 'NONE', #508, #448, #905, .T. ) ;
#712 = ORIENTED_EDGE ( 'NONE', *, *, #443, .T. ) ;
#713 = DIRECTION ( 'NONE',  ( -1.000000000000000000, 0.000000000000000000, 0.000000000000000000 ) ) ;
#714 = DIRECTION ( 'NONE',  ( 0.000000000000000000, 0.000000000000000000, 1.000000000000000000 ) ) ;
#715 = CARTESIAN_POINT ( 'NONE',  ( 15.49193338482966809, 11.00000000000000000, 7.000000000000000000 ) ) ;
#716 = EDGE_CURVE ( 'NONE', #735, #3, #936, .T. ) ;
#717 = EDGE_LOOP ( 'NONE', ( #821, #128, #1040, #668 ) ) ;
#718 = CARTESIAN_POINT ( 'NONE',  ( -25.25000000000000000, 0.000000000000000000, 4.000000000000000000 ) ) ;
#719 = DIRECTION ( 'NONE',  ( -1.000000000000000000, 0.000000000000000000, 0.000000000000000000 ) ) ;
#720 = LINE ( 'NONE', #896, #991 ) ;
#721 = ORIENTED_EDGE ( 'NONE', *, *, #680, .F. ) ;
#722 = ORIENTED_EDGE ( 'NONE', *, *, #455, .F. ) ;
#723 = CARTESIAN_POINT ( 'NONE',  ( 15.49193338482966809, -11.00000000000000000, 7.000000000000000000 ) ) ;
#724 = ADVANCED_FACE ( 'NONE', ( #364 ), #115, .F. ) ;
#725 = LINE ( 'NONE', #152, #157 ) ;
#726 = CIRCLE ( 'NONE', #265, 23.89999999999999858 ) ;
#727 = CIRCLE ( 'NONE', #798, 4.000000000000000000 ) ;
#728 = ORIENTED_EDGE ( 'NONE', *, *, #702, .T. ) ;
#729 = VECTOR ( 'NONE', #504, 1000.000000000000000 ) ;
#730 = VERTEX_POINT ( 'NONE', #776 ) ;
#731 = DIRECTION ( 'NONE',  ( 1.000000000000000000, 0.000000000000000000, 0.000000000000000000 ) ) ;
#732 = EDGE_CURVE ( 'NONE', #663, #771, #387, .T. ) ;
#733 = CARTESIAN_POINT ( 'NONE',  ( -4.000000000000264677, -21.00000000000000000, 8.000000000000000000 ) ) ;
#734 = CARTESIAN_POINT ( 'NONE',  ( -21.21815260572889628, 11.00000000000000000, 7.999999999999996447 ) ) ;
#735 = VERTEX_POINT ( 'NONE', #698 ) ;
#736 = LINE ( 'NONE', #88, #729 ) ;
#737 = CARTESIAN_POINT ( 'NONE',  ( 0.000000000000000000, 0.000000000000000000, 12.00000000000000000 ) ) ;
#738 = DIRECTION ( 'NONE',  ( 0.000000000000000000, 0.000000000000000000, 1.000000000000000000 ) ) ;
#739 = ORIENTED_EDGE ( 'NONE', *, *, #892, .T. ) ;
#740 = ORIENTED_EDGE ( 'NONE', *, *, #877, .F. ) ;
#741 = DIRECTION ( 'NONE',  ( 1.000000000000000000, 0.000000000000000000, -0.000000000000000000 ) ) ;
#742 = CYLINDRICAL_SURFACE ( 'NONE', #78, 4.000000000000000000 ) ;
#743 = CARTESIAN_POINT ( 'NONE',  ( 0.000000000000000000, 0.000000000000000000, 4.000000000000000000 ) ) ;
#744 = VECTOR ( 'NONE', #177, 1000.000000000000000 ) ;
#745 = EDGE_CURVE ( 'NONE', #358, #4, #197, .T. ) ;
#746 = EDGE_LOOP ( 'NONE', ( #835, #395, #429, #1067, #1018, #601, #165, #673 ) ) ;
#747 = VECTOR ( 'NONE', #544, 1000.000000000000000 ) ;
#748 = AXIS2_PLACEMENT_3D ( 'NONE', #558, #146, #216 ) ;
#749 = DIRECTION ( 'NONE',  ( 0.000000000000000000, 0.000000000000000000, 1.000000000000000000 ) ) ;
#750 = UNCERTAINTY_MEASURE_WITH_UNIT (LENGTH_MEASURE( 1.000000000000000082E-05 ), #919, 'distance_accuracy_value', 'NONE');
#751 = CARTESIAN_POINT ( 'NONE',  ( -1.481247163929606854E-13, -21.00000000000000000, 8.000000000000000000 ) ) ;
#752 = PLANE ( 'NONE',  #312 ) ;
#753 = VERTEX_POINT ( 'NONE', #723 ) ;
#754 = EDGE_CURVE ( 'NONE', #845, #830, #133, .T. ) ;
#755 = FACE_OUTER_BOUND ( 'NONE', #865, .T. ) ;
#756 = DIRECTION ( 'NONE',  ( 0.000000000000000000, -1.000000000000000000, 0.000000000000000000 ) ) ;
#757 = DIRECTION ( 'NONE',  ( 0.000000000000000000, 0.000000000000000000, 1.000000000000000000 ) ) ;
#758 = ORIENTED_EDGE ( 'NONE', *, *, #346, .F. ) ;
#759 = PLANE ( 'NONE',  #810 ) ;
#760 = VERTEX_POINT ( 'NONE', #795 ) ;
#761 = EDGE_CURVE ( 'NONE', #74, #620, #808, .T. ) ;
#762 = CARTESIAN_POINT ( 'NONE',  ( 1.482500161549134971E-15, 21.00000000000000000, 8.000000000000000000 ) ) ;
#763 = CARTESIAN_POINT ( 'NONE',  ( -19.00000000000000000, 0.000000000000000000, 7.000000000000000000 ) ) ;
#764 = ORIENTED_EDGE ( 'NONE', *, *, #123, .T. ) ;
#765 = AXIS2_PLACEMENT_3D ( 'NONE', #338, #590, #993 ) ;
#766 = AXIS2_PLACEMENT_3D ( 'NONE', #661, #244, #909 ) ;
#767 = CIRCLE ( 'NONE', #251, 25.25000000000000000 ) ;
#768 = CARTESIAN_POINT ( 'NONE',  ( 19.60943498125589812, 13.75618328736259066, 10.75618328736257112 ) ) ;
#769 = EDGE_CURVE ( 'NONE', #663, #239, #546, .T. ) ;
#770 = DIRECTION ( 'NONE',  ( 0.000000000000000000, 0.000000000000000000, -1.000000000000000000 ) ) ;
#771 = VERTEX_POINT ( 'NONE', #621 ) ;
#772 = DIRECTION ( 'NONE',  ( 1.000000000000000000, 0.000000000000000000, -0.000000000000000000 ) ) ;
#773 = CARTESIAN_POINT ( 'NONE',  ( -20.48282771154164550, -12.41838507451423723, 9.418385074514224797 ) ) ;
#774 = LINE ( 'NONE', #113, #537 ) ;
#775 = ORIENTED_EDGE ( 'NONE', *, *, #732, .F. ) ;
#776 = CARTESIAN_POINT ( 'NONE',  ( -19.00000000000000000, 0.000000000000000000, 4.000000000000000000 ) ) ;
#777 = DIRECTION ( 'NONE',  ( -0.000000000000000000, -0.000000000000000000, 1.000000000000000000 ) ) ;
#778 = ORIENTED_EDGE ( 'NONE', *, *, #665, .F. ) ;
#779 = FACE_BOUND ( 'NONE', #997, .T. ) ;
#780 = AXIS2_PLACEMENT_3D ( 'NONE', #164, #932, #186 ) ;
#781 = CIRCLE ( 'NONE', #619, 4.000000000000000000 ) ;
#782 = DIRECTION ( 'NONE',  ( 1.000000000000000000, 0.000000000000000000, 0.000000000000000000 ) ) ;
#783 = VECTOR ( 'NONE', #276, 1000.000000000000000 ) ;
#784 = DIRECTION ( 'NONE',  ( 0.000000000000000000, 0.000000000000000000, 1.000000000000000000 ) ) ;
#785 = EDGE_LOOP ( 'NONE', ( #982, #294, #270, #887, #648, #876, #548, #562, #1028, #298 ) ) ;
#786 = EDGE_CURVE ( 'NONE', #642, #933, #924, .T. ) ;
#787 = CARTESIAN_POINT ( 'NONE',  ( -4.000000000000264677, -21.00000000000000000, 8.000000000000000000 ) ) ;
#788 = LINE ( 'NONE', #279, #434 ) ;
#789 = VERTEX_POINT ( 'NONE', #151 ) ;
#790 = CARTESIAN_POINT ( 'NONE',  ( -2.100000000000000089, 21.00000000000000000, 0.000000000000000000 ) ) ;
#791 = AXIS2_PLACEMENT_3D ( 'NONE', #899, #156, #660 ) ;
#792 = EDGE_CURVE ( 'NONE', #860, #154, #563, .T. ) ;
#793 = CARTESIAN_POINT ( 'NONE',  ( -15.49193338482966809, 11.00000000000000000, 7.000000000000000000 ) ) ;
#794 = ORIENTED_EDGE ( 'NONE', *, *, #317, .F. ) ;
#795 = CARTESIAN_POINT ( 'NONE',  ( 3.999999999999735323, -21.00000000000000000, 12.00000000000000000 ) ) ;
#796 = CIRCLE ( 'NONE', #883, 2.100000000000000533 ) ;
#797 = CARTESIAN_POINT ( 'NONE',  ( 21.21815260572889628, -11.00000000000000000, 7.999999999999996447 ) ) ;
#798 = AXIS2_PLACEMENT_3D ( 'NONE', #523, #784, #538 ) ;
#799 = EDGE_CURVE ( 'NONE', #730, #501, #869, .T. ) ;
#800 = VECTOR ( 'NONE', #316, 1000.000000000000000 ) ;
#801 = ORIENTED_EDGE ( 'NONE', *, *, #299, .T. ) ;
#802 = ORIENTED_EDGE ( 'NONE', *, *, #507, .F. ) ;
#803 = CARTESIAN_POINT ( 'NONE',  ( 0.000000000000000000, 0.000000000000000000, 0.000000000000000000 ) ) ;
#804 = CARTESIAN_POINT ( 'NONE',  ( 1.482500161549134971E-15, 21.00000000000000000, 12.00000000000000000 ) ) ;
#805 = EDGE_CURVE ( 'NONE', #508, #642, #388, .T. ) ;
#806 = EDGE_LOOP ( 'NONE', ( #518, #283, #955, #801, #557, #740 ) ) ;
#807 = ORIENTED_EDGE ( 'NONE', *, *, #285, .T. ) ;
#808 = LINE ( 'NONE', #815, #1013 ) ;
#809 = DIRECTION ( 'NONE',  ( 1.000000000000000000, 0.000000000000000000, 0.000000000000000000 ) ) ;
#810 = AXIS2_PLACEMENT_3D ( 'NONE', #1019, #952, #772 ) ;
#811 = ORIENTED_EDGE ( 'NONE', *, *, #225, .T. ) ;
#812 = MECHANICAL_DESIGN_GEOMETRIC_PRESENTATION_REPRESENTATION (  '', ( #209 ), #348 ) ;
#813 = ORIENTED_EDGE ( 'NONE', *, *, #292, .F. ) ;
#814 = EDGE_CURVE ( 'NONE', #627, #235, #471, .T. ) ;
#815 = CARTESIAN_POINT ( 'NONE',  ( 25.25000000000000000, 3.092233167847066830E-15, 12.00000000000000000 ) ) ;
#816 = CARTESIAN_POINT ( 'NONE',  ( 2.099999999999852207, -21.00000000000000000, 0.000000000000000000 ) ) ;
#817 = ORIENTED_EDGE ( 'NONE', *, *, #411, .T. ) ;
#818 = AXIS2_PLACEMENT_3D ( 'NONE', #389, #303, #969 ) ;
#819 = CARTESIAN_POINT ( 'NONE',  ( 1.482500161549134971E-15, 21.00000000000000000, 0.000000000000000000 ) ) ;
#820 = VECTOR ( 'NONE', #393, 1000.000000000000000 ) ;
#821 = ORIENTED_EDGE ( 'NONE', *, *, #480, .F. ) ;
#822 = APPLICATION_CONTEXT ( 'automotive_design' ) ;
#823 = DIRECTION ( 'NONE',  ( 1.000000000000000000, 0.000000000000000000, 0.000000000000000000 ) ) ;
#824 = CARTESIAN_POINT ( 'NONE',  ( 21.21815260572889628, -11.00000000000000000, 7.999999999999996447 ) ) ;
#825 = CARTESIAN_POINT ( 'NONE',  ( 1.482500161549134971E-15, 21.00000000000000000, 8.000000000000000000 ) ) ;
#826 = ORIENTED_EDGE ( 'NONE', *, *, #143, .T. ) ;
#827 = DIRECTION ( 'NONE',  ( -0.000000000000000000, -0.000000000000000000, -1.000000000000000000 ) ) ;
#828 = EDGE_CURVE ( 'NONE', #325, #627, #176, .T. ) ;
#829 = DIRECTION ( 'NONE',  ( -1.000000000000000000, 0.000000000000000000, 0.000000000000000000 ) ) ;
#830 = VERTEX_POINT ( 'NONE', #964 ) ;
#831 = DIRECTION ( 'NONE',  ( 1.000000000000000000, 0.000000000000000000, 0.000000000000000000 ) ) ;
#832 = DIRECTION ( 'NONE',  ( -0.000000000000000000, -0.000000000000000000, 1.000000000000000000 ) ) ;
#833 = DIRECTION ( 'NONE',  ( 0.000000000000000000, 0.000000000000000000, -1.000000000000000000 ) ) ;
#834 = EDGE_CURVE ( 'NONE', #74, #856, #767, .T. ) ;
#835 = ORIENTED_EDGE ( 'NONE', *, *, #1024, .F. ) ;
#836 = AXIS2_PLACEMENT_3D ( 'NONE', #843, #417, #926 ) ;
#837 = CYLINDRICAL_SURFACE ( 'NONE', #110, 25.25000000000000000 ) ;
#838 = LINE ( 'NONE', #97, #195 ) ;
#839 = CARTESIAN_POINT ( 'NONE',  ( 4.000000000000001776, 21.00000000000000000, 8.000000000000000000 ) ) ;
#840 = ORIENTED_EDGE ( 'NONE', *, *, #786, .T. ) ;
#841 = EDGE_LOOP ( 'NONE', ( #493, #638, #1002, #579, #486, #545, #202, #649 ) ) ;
#842 = ADVANCED_FACE ( 'NONE', ( #1050 ), #482, .T. ) ;
#843 = CARTESIAN_POINT ( 'NONE',  ( -2.641584726159505513E-13, -21.00000000000000000, 12.00000000000000000 ) ) ;
#844 = CARTESIAN_POINT ( 'NONE',  ( 0.000000000000000000, 0.000000000000000000, 4.000000000000000000 ) ) ;
#845 = VERTEX_POINT ( 'NONE', #701 ) ;
#846 = CYLINDRICAL_SURFACE ( 'NONE', #968, 2.100000000000000533 ) ;
#847 = PRODUCT_DEFINITION_FORMATION_WITH_SPECIFIED_SOURCE ( 'ANY', '', #681, .NOT_KNOWN. ) ;
#848 = EDGE_CURVE ( 'NONE', #550, #561, #617, .T. ) ;
#849 = CARTESIAN_POINT ( 'NONE',  ( 0.6089803659951883441, -18.99023809523809803, 6.000000000000000000 ) ) ;
#850 = DIRECTION ( 'NONE',  ( 1.000000000000000000, 0.000000000000000000, 0.000000000000000000 ) ) ;
#851 = EDGE_LOOP ( 'NONE', ( #331, #308, #687, #962 ) ) ;
#852 = AXIS2_PLACEMENT_3D ( 'NONE', #425, #757, #22 ) ;
#853 = AXIS2_PLACEMENT_3D ( 'NONE', #589, #577, #101 ) ;
#854 = DIRECTION ( 'NONE',  ( 1.000000000000000000, 0.000000000000000000, 0.000000000000000000 ) ) ;
#855 = LINE ( 'NONE', #1021, #121 ) ;
#856 = VERTEX_POINT ( 'NONE', #718 ) ;
#857 = DIRECTION ( 'NONE',  ( -0.000000000000000000, -0.000000000000000000, 1.000000000000000000 ) ) ;
#858 = CARTESIAN_POINT ( 'NONE',  ( 15.49193338482966809, -10.99999999999999645, 4.000000000000000000 ) ) ;
#859 = EDGE_CURVE ( 'NONE', #24, #657, #159, .T. ) ;
#860 = VERTEX_POINT ( 'NONE', #130 ) ;
#861 = AXIS2_PLACEMENT_3D ( 'NONE', #651, #827, #999 ) ;
#862 = CARTESIAN_POINT ( 'NONE',  ( -2.100000000000148859, -21.00000000000000000, 0.000000000000000000 ) ) ;
#863 = CARTESIAN_POINT ( 'NONE',  ( 0.000000000000000000, 0.000000000000000000, 4.000000000000000000 ) ) ;
#864 = ADVANCED_FACE ( 'NONE', ( #882 ), #959, .F. ) ;
#865 = EDGE_LOOP ( 'NONE', ( #951, #938, #712, #813 ) ) ;
#866 = AXIS2_PLACEMENT_3D ( 'NONE', #844, #357, #17 ) ;
#867 = AXIS2_PLACEMENT_3D ( 'NONE', #692, #536, #854 ) ;
#868 = CARTESIAN_POINT ( 'NONE',  ( -19.60943498125589812, -13.75618328736259066, 10.75618328736257112 ) ) ;
#869 = CIRCLE ( 'NONE', #337, 19.00000000000000000 ) ;
#870 = DIRECTION ( 'NONE',  ( -1.000000000000000000, 0.000000000000000000, 0.000000000000000000 ) ) ;
#871 = EDGE_LOOP ( 'NONE', ( #592, #764, #172, #426 ) ) ;
#872 = ADVANCED_FACE ( 'NONE', ( #543, #873 ), #459, .T. ) ;
#873 = FACE_OUTER_BOUND ( 'NONE', #851, .T. ) ;
#874 = DIRECTION ( 'NONE',  ( 1.000000000000000000, 0.000000000000000000, 0.000000000000000000 ) ) ;
#875 = ORIENTED_EDGE ( 'NONE', *, *, #77, .F. ) ;
#876 = ORIENTED_EDGE ( 'NONE', *, *, #671, .T. ) ;
#877 = EDGE_CURVE ( 'NONE', #501, #473, #1046, .T. ) ;
#878 = DIRECTION ( 'NONE',  ( 0.000000000000000000, 0.000000000000000000, -1.000000000000000000 ) ) ;
#879 = CARTESIAN_POINT ( 'NONE',  ( 2.933510730180078685, 23.71928571428571431, 12.00000000000000000 ) ) ;
#880 = EDGE_LOOP ( 'NONE', ( #496, #401, #888, #439, #278, #1006, #242, #161, #414 ) ) ;
#881 = ORIENTED_EDGE ( 'NONE', *, *, #615, .F. ) ;
#882 = FACE_OUTER_BOUND ( 'NONE', #988, .T. ) ;
#883 = AXIS2_PLACEMENT_3D ( 'NONE', #1016, #662, #182 ) ;
#884 = CARTESIAN_POINT ( 'NONE',  ( 1.482500161549134971E-15, 21.00000000000000000, 7.000000000000000000 ) ) ;
#885 = CIRCLE ( 'NONE', #423, 4.000000000000000000 ) ;
#886 = AXIS2_PLACEMENT_3D ( 'NONE', #803, #309, #220 ) ;
#887 = ORIENTED_EDGE ( 'NONE', *, *, #981, .F. ) ;
#888 = ORIENTED_EDGE ( 'NONE', *, *, #828, .T. ) ;
#889 = CARTESIAN_POINT ( 'NONE',  ( 21.21815260572889628, -11.00000000000000000, 7.999999999999996447 ) ) ;
#890 = CARTESIAN_POINT ( 'NONE',  ( -21.21815260572889628, -11.00000000000000000, 4.000000000000000000 ) ) ;
#891 = DIRECTION ( 'NONE',  ( 0.000000000000000000, 0.000000000000000000, -1.000000000000000000 ) ) ;
#892 = EDGE_CURVE ( 'NONE', #313, #454, #736, .T. ) ;
#893 = ORIENTED_EDGE ( 'NONE', *, *, #716, .T. ) ;
#894 = DIRECTION ( 'NONE',  ( 0.000000000000000000, 0.000000000000000000, -1.000000000000000000 ) ) ;
#895 = CARTESIAN_POINT ( 'NONE',  ( 1.482500161549134971E-15, 21.00000000000000000, 8.000000000000000000 ) ) ;
#896 = CARTESIAN_POINT ( 'NONE',  ( -15.49193338482966809, -11.00000000000000000, 7.000000000000000000 ) ) ;
#897 = ADVANCED_FACE ( 'NONE', ( #167 ), #264, .F. ) ;
#898 = ORIENTED_EDGE ( 'NONE', *, *, #786, .F. ) ;
#899 = CARTESIAN_POINT ( 'NONE',  ( -34.94592146739513083, 11.00000000000000000, 4.000000000000000000 ) ) ;
#900 = CARTESIAN_POINT ( 'NONE',  ( -21.21815260572889628, 11.00000000000000000, 7.999999999999996447 ) ) ;
#901 = AXIS2_PLACEMENT_3D ( 'NONE', #703, #296, #457 ) ;
#902 = MECHANICAL_DESIGN_GEOMETRIC_PRESENTATION_REPRESENTATION (  '', ( #300 ), #249 ) ;
#903 = ORIENTED_EDGE ( 'NONE', *, *, #112, .T. ) ;
#904 = PRODUCT_CONTEXT ( 'NONE', #594, 'mechanical' ) ;
#905 = CIRCLE ( 'NONE', #58, 2.100000000000000533 ) ;
#906 = ORIENTED_EDGE ( 'NONE', *, *, #77, .T. ) ;
#907 = DIRECTION ( 'NONE',  ( -0.000000000000000000, -0.000000000000000000, 1.000000000000000000 ) ) ;
#908 = EDGE_CURVE ( 'NONE', #235, #53, #488, .T. ) ;
#909 = DIRECTION ( 'NONE',  ( 1.000000000000000000, 0.000000000000000000, 0.000000000000000000 ) ) ;
#910 = CARTESIAN_POINT ( 'NONE',  ( 2.100000000000002309, 21.00000000000000000, 8.000000000000000000 ) ) ;
#911 = ORIENTED_EDGE ( 'NONE', *, *, #332, .F. ) ;
#912 = ORIENTED_EDGE ( 'NONE', *, *, #769, .T. ) ;
#913 = PLANE ( 'NONE',  #30 ) ;
#914 = ADVANCED_FACE ( 'NONE', ( #497, #572 ), #913, .F. ) ;
#915 = DIRECTION ( 'NONE',  ( 0.000000000000000000, 0.000000000000000000, 1.000000000000000000 ) ) ;
#916 = LINE ( 'NONE', #574, #744 ) ;
#917 = ORIENTED_EDGE ( 'NONE', *, *, #255, .T. ) ;
#918 = CARTESIAN_POINT ( 'NONE',  ( 0.000000000000000000, 0.000000000000000000, 12.00000000000000000 ) ) ;
#919 =( LENGTH_UNIT ( ) NAMED_UNIT ( * ) SI_UNIT ( .MILLI., .METRE. ) );
#920 = DIRECTION ( 'NONE',  ( 0.000000000000000000, 0.000000000000000000, -1.000000000000000000 ) ) ;
#921 = VECTOR ( 'NONE', #451, 1000.000000000000000 ) ;
#922 = AXIS2_PLACEMENT_3D ( 'NONE', #424, #353, #985 ) ;
#923 = ORIENTED_EDGE ( 'NONE', *, *, #908, .F. ) ;
#924 = CIRCLE ( 'NONE', #453, 2.100000000000000533 ) ;
#925 = DIRECTION ( 'NONE',  ( -0.000000000000000000, -0.000000000000000000, -1.000000000000000000 ) ) ;
#926 = DIRECTION ( 'NONE',  ( 1.000000000000000000, 0.000000000000000000, 0.000000000000000000 ) ) ;
#927 = DIRECTION ( 'NONE',  ( -0.000000000000000000, -0.000000000000000000, -1.000000000000000000 ) ) ;
#928 = ADVANCED_FACE ( 'NONE', ( #340 ), #1003, .F. ) ;
#929 = ORIENTED_EDGE ( 'NONE', *, *, #184, .F. ) ;
#930 = SURFACE_STYLE_USAGE ( .BOTH. , #935 ) ;
#931 = CARTESIAN_POINT ( 'NONE',  ( 20.48282771154164550, 12.41838507451423723, 9.418385074514224797 ) ) ;
#932 = DIRECTION ( 'NONE',  ( 0.000000000000000000, 0.000000000000000000, -1.000000000000000000 ) ) ;
#933 = VERTEX_POINT ( 'NONE', #321 ) ;
#934 = PRODUCT_RELATED_PRODUCT_CATEGORY ( 'part', '', ( #681 ) ) ;
#935 = SURFACE_SIDE_STYLE ('',( #525 ) ) ;
#936 = LINE ( 'NONE', #1015, #588 ) ;
#937 = CARTESIAN_POINT ( 'NONE',  ( -34.94592146739513083, 11.00000000000000000, 4.000000000000000000 ) ) ;
#938 = ORIENTED_EDGE ( 'NONE', *, *, #761, .T. ) ;
#939 = VECTOR ( 'NONE', #13, 1000.000000000000000 ) ;
#940 = VECTOR ( 'NONE', #857, 1000.000000000000000 ) ;
#941 = CARTESIAN_POINT ( 'NONE',  ( -4.000000000000264677, -21.00000000000000000, 12.00000000000000000 ) ) ;
#942 = VECTOR ( 'NONE', #64, 1000.000000000000000 ) ;
#943 = ADVANCED_FACE ( 'NONE', ( #427 ), #180, .F. ) ;
#944 = DIRECTION ( 'NONE',  ( 1.000000000000000000, 0.000000000000000000, 0.000000000000000000 ) ) ;
#945 = CARTESIAN_POINT ( 'NONE',  ( -34.94592146739513083, -11.00000000000000000, 7.999999999999996447 ) ) ;
#946 = ORIENTED_EDGE ( 'NONE', *, *, #149, .F. ) ;
#947 = APPLICATION_PROTOCOL_DEFINITION ( 'draft international standard', 'automotive_design', 1998, #594 ) ;
#948 = DIRECTION ( 'NONE',  ( 0.000000000000000000, 0.000000000000000000, 1.000000000000000000 ) ) ;
#949 = ADVANCED_FACE ( 'NONE', ( #755 ), #837, .T. ) ;
#950 = CARTESIAN_POINT ( 'NONE',  ( 1.482500161549134971E-15, 21.00000000000000000, 12.00000000000000000 ) ) ;
#951 = ORIENTED_EDGE ( 'NONE', *, *, #184, .T. ) ;
#952 = DIRECTION ( 'NONE',  ( 0.000000000000000000, 0.000000000000000000, 1.000000000000000000 ) ) ;
#953 = DIRECTION ( 'NONE',  ( 1.000000000000000000, 0.000000000000000000, 0.000000000000000000 ) ) ;
#954 = DIRECTION ( 'NONE',  ( -0.000000000000000000, -0.000000000000000000, 1.000000000000000000 ) ) ;
#955 = ORIENTED_EDGE ( 'NONE', *, *, #745, .T. ) ;
#956 = ADVANCED_FACE ( 'NONE', ( #644 ), #984, .F. ) ;
#957 = AXIS2_PLACEMENT_3D ( 'NONE', #431, #171, #500 ) ;
#958 = CIRCLE ( 'NONE', #556, 23.89999999999999858 ) ;
#959 = CYLINDRICAL_SURFACE ( 'NONE', #748, 2.100000000000000533 ) ;
#960 = AXIS2_PLACEMENT_3D ( 'NONE', #305, #1041, #232 ) ;
#961 = CARTESIAN_POINT ( 'NONE',  ( 0.000000000000000000, 0.000000000000000000, 0.000000000000000000 ) ) ;
#962 = ORIENTED_EDGE ( 'NONE', *, *, #519, .F. ) ;
#963 = EDGE_CURVE ( 'NONE', #257, #344, #587, .T. ) ;
#964 = CARTESIAN_POINT ( 'NONE',  ( -18.60671921645509030, -15.00000000000002309, 12.00000000000000000 ) ) ;
#965 = DIRECTION ( 'NONE',  ( -1.000000000000000000, 0.000000000000000000, 0.000000000000000000 ) ) ;
#966 = ORIENTED_EDGE ( 'NONE', *, *, #507, .T. ) ;
#967 = CARTESIAN_POINT ( 'NONE',  ( 2.933510730179768267, -23.71928571428576049, 10.00000000000000000 ) ) ;
#968 = AXIS2_PLACEMENT_3D ( 'NONE', #203, #275, #223 ) ;
#969 = DIRECTION ( 'NONE',  ( 1.000000000000000000, 0.000000000000000000, 0.000000000000000000 ) ) ;
#970 = ORIENTED_EDGE ( 'NONE', *, *, #50, .T. ) ;
#971 = ORIENTED_EDGE ( 'NONE', *, *, #411, .F. ) ;
#972 = CIRCLE ( 'NONE', #852, 2.100000000000000977 ) ;
#973 = DIRECTION ( 'NONE',  ( 1.000000000000000000, 0.000000000000000000, 0.000000000000000000 ) ) ;
#974 = CIRCLE ( 'NONE', #706, 4.000000000000000000 ) ;
#975 = LINE ( 'NONE', #466, #747 ) ;
#976 = CIRCLE ( 'NONE', #231, 19.00000000000000000 ) ;
#977 = DIRECTION ( 'NONE',  ( 1.000000000000000000, 0.000000000000000000, 0.000000000000000000 ) ) ;
#978 = ORIENTED_EDGE ( 'NONE', *, *, #697, .F. ) ;
#979 = DIRECTION ( 'NONE',  ( 0.000000000000000000, 0.000000000000000000, 1.000000000000000000 ) ) ;
#980 = FACE_OUTER_BOUND ( 'NONE', #420, .T. ) ;
#981 = EDGE_CURVE ( 'NONE', #830, #313, #462, .T. ) ;
#982 = ORIENTED_EDGE ( 'NONE', *, *, #769, .F. ) ;
#983 = EDGE_LOOP ( 'NONE', ( #91, #775, #912, #970 ) ) ;
#984 = CYLINDRICAL_SURFACE ( 'NONE', #669, 4.000000000000000000 ) ;
#985 = DIRECTION ( 'NONE',  ( -1.000000000000000000, 0.000000000000000000, 0.000000000000000000 ) ) ;
#986 = EDGE_LOOP ( 'NONE', ( #304, #476, #117, #826 ) ) ;
#987 = EDGE_CURVE ( 'NONE', #1049, #313, #187, .T. ) ;
#988 = EDGE_LOOP ( 'NONE', ( #99, #218, #1068, #236 ) ) ;
#989 = DIRECTION ( 'NONE',  ( 0.000000000000000000, 0.000000000000000000, 1.000000000000000000 ) ) ;
#990 = SURFACE_STYLE_FILL_AREA ( #1000 ) ;
#991 = VECTOR ( 'NONE', #228, 1000.000000000000000 ) ;
#992 = CIRCLE ( 'NONE', #766, 23.89999999999999858 ) ;
#993 = DIRECTION ( 'NONE',  ( 1.000000000000000000, 0.000000000000000000, 0.000000000000000000 ) ) ;
#994 = SHAPE_DEFINITION_REPRESENTATION ( #531, #343 ) ;
#995 = AXIS2_PLACEMENT_3D ( 'NONE', #248, #19, #831 ) ;
#996 = ORIENTED_EDGE ( 'NONE', *, *, #615, .T. ) ;
#997 = EDGE_LOOP ( 'NONE', ( #898, #319 ) ) ;
#998 = EDGE_CURVE ( 'NONE', #344, #561, #334, .T. ) ;
#999 = DIRECTION ( 'NONE',  ( -1.000000000000000000, 0.000000000000000000, 0.000000000000000000 ) ) ;
#1000 = FILL_AREA_STYLE ('',( #573 ) ) ;
#1001 = LINE ( 'NONE', #7, #75 ) ;
#1002 = ORIENTED_EDGE ( 'NONE', *, *, #285, .F. ) ;
#1003 = CYLINDRICAL_SURFACE ( 'NONE', #80, 19.00000000000000000 ) ;
#1004 = CARTESIAN_POINT ( 'NONE',  ( -0.6089803659953234583, 18.99023809523809447, 7.000000000000000000 ) ) ;
#1005 = DIRECTION ( 'NONE',  ( -0.000000000000000000, -0.000000000000000000, -1.000000000000000000 ) ) ;
#1006 = ORIENTED_EDGE ( 'NONE', *, *, #219, .F. ) ;
#1007 = CARTESIAN_POINT ( 'NONE',  ( -15.49193338482966809, 11.00000000000000000, 7.000000000000000000 ) ) ;
#1008 = SURFACE_SIDE_STYLE ('',( #990 ) ) ;
#1009 = ADVANCED_FACE ( 'NONE', ( #494 ), #567, .F. ) ;
#1010 = DIRECTION ( 'NONE',  ( -1.000000000000000000, 0.000000000000000000, -0.000000000000000000 ) ) ;
#1011 = AXIS2_PLACEMENT_3D ( 'NONE', #1048, #238, #322 ) ;
#1012 = EDGE_LOOP ( 'NONE', ( #512, #396, #728, #610 ) ) ;
#1013 = VECTOR ( 'NONE', #632, 1000.000000000000000 ) ;
#1014 = CARTESIAN_POINT ( 'NONE',  ( 15.49193338482966809, -11.00000000000000000, 7.000000000000000000 ) ) ;
#1015 = CARTESIAN_POINT ( 'NONE',  ( -21.21815260572889628, 11.00000000000000000, 7.999999999999996447 ) ) ;
#1016 = CARTESIAN_POINT ( 'NONE',  ( -1.481247163929606854E-13, -21.00000000000000000, 7.000000000000000000 ) ) ;
#1017 = ADVANCED_FACE ( 'NONE', ( #489 ), #5, .F. ) ;
#1018 = ORIENTED_EDGE ( 'NONE', *, *, #33, .F. ) ;
#1019 = CARTESIAN_POINT ( 'NONE',  ( -2.641584726159505513E-13, -21.00000000000000000, 8.000000000000000000 ) ) ;
#1020 = DIRECTION ( 'NONE',  ( 1.000000000000000000, 0.000000000000000000, 0.000000000000000000 ) ) ;
#1021 = CARTESIAN_POINT ( 'NONE',  ( 2.933510730180069803, 23.71928571428572141, 10.00000000000000000 ) ) ;
#1022 = ORIENTED_EDGE ( 'NONE', *, *, #535, .T. ) ;
#1023 = AXIS2_PLACEMENT_3D ( 'NONE', #688, #290, #35 ) ;
#1024 = EDGE_CURVE ( 'NONE', #789, #682, #532, .T. ) ;
#1025 = DIRECTION ( 'NONE',  ( 0.000000000000000000, 0.000000000000000000, 1.000000000000000000 ) ) ;
#1026 = LINE ( 'NONE', #684, #403 ) ;
#1027 = DIRECTION ( 'NONE',  ( 0.000000000000000000, 0.000000000000000000, -1.000000000000000000 ) ) ;
#1028 = ORIENTED_EDGE ( 'NONE', *, *, #474, .T. ) ;
#1029 = ORIENTED_EDGE ( 'NONE', *, *, #260, .F. ) ;
#1030 = AXIS2_PLACEMENT_3D ( 'NONE', #819, #81, #623 ) ;
#1031 = PRESENTATION_STYLE_ASSIGNMENT (( #930 ) ) ;
#1032 = ADVANCED_FACE ( 'NONE', ( #779, #363 ), #759, .T. ) ;
#1033 = DIRECTION ( 'NONE',  ( -0.000000000000000000, -0.000000000000000000, 1.000000000000000000 ) ) ;
#1034 = CARTESIAN_POINT ( 'NONE',  ( -21.21815260572889628, 11.00000000000000000, 4.000000000000000000 ) ) ;
#1035 = VERTEX_POINT ( 'NONE', #25 ) ;
#1036 = DIRECTION ( 'NONE',  ( -1.000000000000000000, 0.000000000000000000, 0.000000000000000000 ) ) ;
#1037 = CARTESIAN_POINT ( 'NONE',  ( -21.21815260572889628, -11.00000000000000000, 7.999999999999996447 ) ) ;
#1038 = ADVANCED_FACE ( 'NONE', ( #351 ), #676, .T. ) ;
#1039 = CARTESIAN_POINT ( 'NONE',  ( -25.25000000000000000, 0.000000000000000000, 12.00000000000000000 ) ) ;
#1040 = ORIENTED_EDGE ( 'NONE', *, *, #571, .T. ) ;
#1041 = DIRECTION ( 'NONE',  ( 0.000000000000000000, 0.000000000000000000, 1.000000000000000000 ) ) ;
#1042 = LINE ( 'NONE', #618, #921 ) ;
#1043 = EDGE_CURVE ( 'NONE', #257, #753, #683, .T. ) ;
#1044 = EDGE_LOOP ( 'NONE', ( #339, #996, #597, #612 ) ) ;
#1045 = AXIS2_PLACEMENT_3D ( 'NONE', #950, #52, #205 ) ;
#1046 = LINE ( 'NONE', #1007, #540 ) ;
#1047 = AXIS2_PLACEMENT_3D ( 'NONE', #509, #907, #664 ) ;
#1048 = CARTESIAN_POINT ( 'NONE',  ( 0.000000000000000000, 0.000000000000000000, 12.00000000000000000 ) ) ;
#1049 = VERTEX_POINT ( 'NONE', #941 ) ;
#1050 = FACE_OUTER_BOUND ( 'NONE', #288, .T. ) ;
#1051 = CARTESIAN_POINT ( 'NONE',  ( -34.94592146739513083, 11.00000000000000000, 7.999999999999996447 ) ) ;
#1052 = UNCERTAINTY_MEASURE_WITH_UNIT (LENGTH_MEASURE( 1.000000000000000082E-05 ), #191, 'distance_accuracy_value', 'NONE');
#1053 = ORIENTED_EDGE ( 'NONE', *, *, #206, .T. ) ;
#1054 = EDGE_LOOP ( 'NONE', ( #566, #333, #150, #49, #136, #432 ) ) ;
#1055 = ADVANCED_FACE ( 'NONE', ( #602 ), #846, .F. ) ;
#1056 = DIRECTION ( 'NONE',  ( -1.000000000000000000, 0.000000000000000000, 0.000000000000000000 ) ) ;
#1057 = CARTESIAN_POINT ( 'NONE',  ( 0.000000000000000000, 0.000000000000000000, 4.000000000000000000 ) ) ;
#1058 =( BOUNDED_CURVE ( )  B_SPLINE_CURVE ( 3, ( #900, #175, #430, #21 ),
 .UNSPECIFIED., .F., .F. ) 
 B_SPLINE_CURVE_WITH_KNOTS ( ( 4, 4 ),
 ( 5.190666934922091080, 5.390874985583979928 ),
 .UNSPECIFIED. ) 
 CURVE ( )  GEOMETRIC_REPRESENTATION_ITEM ( )  RATIONAL_B_SPLINE_CURVE ( ( 1.000000000000000000, 0.9966625164601562448, 0.9966625164601562448, 1.000000000000000000 ) ) 
 REPRESENTATION_ITEM ( '' )  );
#1059 = VERTEX_POINT ( 'NONE', #599 ) ;
#1060 = ORIENTED_EDGE ( 'NONE', *, *, #398, .T. ) ;
#1061 = EDGE_CURVE ( 'NONE', #607, #325, #366, .T. ) ;
#1062 = AXIS2_PLACEMENT_3D ( 'NONE', #945, #287, #361 ) ;
#1063 = DIRECTION ( 'NONE',  ( -0.000000000000000000, -0.000000000000000000, 1.000000000000000000 ) ) ;
#1064 = AXIS2_PLACEMENT_3D ( 'NONE', #895, #394, #809 ) ;
#1065 = FACE_OUTER_BOUND ( 'NONE', #785, .T. ) ;
#1066 = VECTOR ( 'NONE', #302, 1000.000000000000000 ) ;
#1067 = ORIENTED_EDGE ( 'NONE', *, *, #624, .T. ) ;
#1068 = ORIENTED_EDGE ( 'NONE', *, *, #598, .T. ) ;
#1069 = DIRECTION ( 'NONE',  ( -1.000000000000000000, 0.000000000000000000, 0.000000000000000000 ) ) ;
ENDSEC;
END-ISO-10303-21;
