ISO-10303-21;
HEADER;
FILE_DESCRIPTION (( 'STEP AP214' ),
    '1' );
FILE_NAME ('LAB-001-020-120_00.STEP',
    '2025-01-07T18:32:12',
    ( '' ),
    ( '' ),
    'SwSTEP 2.0',
    'SolidWorks 2022',
    '' );
FILE_SCHEMA (( 'AUTOMOTIVE_DESIGN' ));
ENDSEC;

DATA;
#1 = CYLINDRICAL_SURFACE ( 'NONE', #576, 2.200000000000000622 ) ;
#2 = CARTESIAN_POINT ( 'NONE',  ( 2.020725942163690725, 17.49999999999999645, 3.000000000000000000 ) ) ;
#3 = LINE ( 'NONE', #357, #376 ) ;
#4 = ADVANCED_FACE ( 'NONE', ( #309, #629 ), #685, .T. ) ;
#5 = ORIENTED_EDGE ( 'NONE', *, *, #360, .T. ) ;
#6 = DIRECTION ( 'NONE',  ( 0.5000000000000002220, 0.8660254037844384856, 0.000000000000000000 ) ) ;
#7 = ORIENTED_EDGE ( 'NONE', *, *, #623, .F. ) ;
#8 = AXIS2_PLACEMENT_3D ( 'NONE', #533, #54, #258 ) ;
#9 = DIRECTION ( 'NONE',  ( 0.4999999999999997224, -0.8660254037844388186, 0.000000000000000000 ) ) ;
#10 = DIRECTION ( 'NONE',  ( -0.8660254037844423713, -0.4999999999999936162, 0.000000000000000000 ) ) ;
#11 = DIRECTION ( 'NONE',  ( 1.000000000000000000, 0.000000000000000000, 0.000000000000000000 ) ) ;
#12 = CARTESIAN_POINT ( 'NONE',  ( 2.020725942163690725, 17.49999999999999645, 3.000000000000000000 ) ) ;
#13 = VECTOR ( 'NONE', #73, 1000.000000000000000 ) ;
#14 = ORIENTED_EDGE ( 'NONE', *, *, #35, .T. ) ;
#15 = CARTESIAN_POINT ( 'NONE',  ( 0.000000000000000000, 21.00000000000000000, 0.000000000000000000 ) ) ;
#16 = DIRECTION ( 'NONE',  ( -0.000000000000000000, -0.000000000000000000, -1.000000000000000000 ) ) ;
#17 = EDGE_LOOP ( 'NONE', ( #313, #52, #90, #184 ) ) ;
#18 = ORIENTED_EDGE ( 'NONE', *, *, #487, .F. ) ;
#19 = AXIS2_PLACEMENT_3D ( 'NONE', #262, #44, #681 ) ;
#20 = CARTESIAN_POINT ( 'NONE',  ( 2.020725942163571265, -17.50000000000001066, 6.000000000000000000 ) ) ;
#21 = CARTESIAN_POINT ( 'NONE',  ( 2.020725942163516198, -24.50000000000001066, 3.000000000000000000 ) ) ;
#22 = EDGE_LOOP ( 'NONE', ( #577, #517, #55, #382, #5, #325 ) ) ;
#23 = CARTESIAN_POINT ( 'NONE',  ( -1.466422162314116009E-13, -21.00000000000000000, 3.000000000000000000 ) ) ;
#24 = DIRECTION ( 'NONE',  ( 0.000000000000000000, -0.000000000000000000, 1.000000000000000000 ) ) ;
#25 = EDGE_CURVE ( 'NONE', #456, #208, #482, .T. ) ;
#26 = CARTESIAN_POINT ( 'NONE',  ( -2.200000000000147171, -21.00000000000000000, 0.000000000000000000 ) ) ;
#27 = AXIS2_PLACEMENT_3D ( 'NONE', #495, #223, #380 ) ;
#28 = FACE_OUTER_BOUND ( 'NONE', #650, .T. ) ;
#29 = ORIENTED_EDGE ( 'NONE', *, *, #118, .T. ) ;
#30 = FILL_AREA_STYLE ('',( #616 ) ) ;
#31 = ADVANCED_FACE ( 'NONE', ( #211 ), #631, .F. ) ;
#32 = ORIENTED_EDGE ( 'NONE', *, *, #86, .F. ) ;
#33 = PRODUCT_DEFINITION_CONTEXT ( 'detailed design', #424, 'design' ) ;
#34 = FACE_OUTER_BOUND ( 'NONE', #17, .T. ) ;
#35 = EDGE_CURVE ( 'NONE', #330, #148, #113, .T. ) ;
#36 = ORIENTED_EDGE ( 'NONE', *, *, #511, .T. ) ;
#37 = CARTESIAN_POINT ( 'NONE',  ( 0.000000000000000000, 0.000000000000000000, 6.000000000000000000 ) ) ;
#38 = VECTOR ( 'NONE', #503, 1000.000000000000000 ) ;
#39 = CARTESIAN_POINT ( 'NONE',  ( 0.000000000000000000, 0.000000000000000000, 0.000000000000000000 ) ) ;
#40 = ORIENTED_EDGE ( 'NONE', *, *, #92, .T. ) ;
#41 = AXIS2_PLACEMENT_3D ( 'NONE', #217, #445, #269 ) ;
#42 = ORIENTED_EDGE ( 'NONE', *, *, #378, .T. ) ;
#43 = DIRECTION ( 'NONE',  ( -0.5000000000000003331, -0.8660254037844384856, 0.000000000000000000 ) ) ;
#44 = DIRECTION ( 'NONE',  ( 0.000000000000000000, -0.000000000000000000, 1.000000000000000000 ) ) ;
#45 = EDGE_CURVE ( 'NONE', #312, #669, #3, .T. ) ;
#46 = ORIENTED_EDGE ( 'NONE', *, *, #356, .T. ) ;
#47 = ORIENTED_EDGE ( 'NONE', *, *, #347, .F. ) ;
#48 = DIRECTION ( 'NONE',  ( 1.000000000000000000, 0.000000000000000000, 0.000000000000000000 ) ) ;
#49 = EDGE_CURVE ( 'NONE', #342, #502, #467, .T. ) ;
#50 = VECTOR ( 'NONE', #162, 1000.000000000000000 ) ;
#51 = VERTEX_POINT ( 'NONE', #159 ) ;
#52 = ORIENTED_EDGE ( 'NONE', *, *, #105, .T. ) ;
#53 = EDGE_CURVE ( 'NONE', #391, #456, #203, .T. ) ;
#54 = DIRECTION ( 'NONE',  ( 0.000000000000000000, 0.000000000000000000, 1.000000000000000000 ) ) ;
#55 = ORIENTED_EDGE ( 'NONE', *, *, #663, .T. ) ;
#56 = ORIENTED_EDGE ( 'NONE', *, *, #560, .T. ) ;
#57 = VECTOR ( 'NONE', #185, 1000.000000000000000 ) ;
#58 = VERTEX_POINT ( 'NONE', #531 ) ;
#59 = VERTEX_POINT ( 'NONE', #636 ) ;
#60 = LINE ( 'NONE', #543, #431 ) ;
#61 = CARTESIAN_POINT ( 'NONE',  ( 4.041451884327381450, 20.99999999999999645, 3.000000000000000000 ) ) ;
#62 = DIRECTION ( 'NONE',  ( -0.000000000000000000, 0.000000000000000000, -1.000000000000000000 ) ) ;
#63 = CARTESIAN_POINT ( 'NONE',  ( 24.50000000000000000, 3.000384657911015469E-15, 6.000000000000000000 ) ) ;
#64 = CARTESIAN_POINT ( 'NONE',  ( -24.50000000000000000, 0.000000000000000000, 6.000000000000000000 ) ) ;
#65 = CARTESIAN_POINT ( 'NONE',  ( 24.50000000000000000, 3.000384657911015469E-15, 6.000000000000000000 ) ) ;
#66 = PLANE ( 'NONE',  #514 ) ;
#67 = CARTESIAN_POINT ( 'NONE',  ( -4.041451884327380562, 20.99999999999999289, 3.000000000000000000 ) ) ;
#68 = VERTEX_POINT ( 'NONE', #256 ) ;
#69 = VECTOR ( 'NONE', #433, 1000.000000000000000 ) ;
#70 = LINE ( 'NONE', #293, #536 ) ;
#71 = ADVANCED_FACE ( 'NONE', ( #475 ), #1, .F. ) ;
#72 = DIRECTION ( 'NONE',  ( -0.000000000000000000, -0.000000000000000000, 1.000000000000000000 ) ) ;
#73 = DIRECTION ( 'NONE',  ( 0.000000000000000000, 0.000000000000000000, 1.000000000000000000 ) ) ;
#74 = CARTESIAN_POINT ( 'NONE',  ( 0.000000000000000000, 0.000000000000000000, 6.000000000000000000 ) ) ;
#75 = EDGE_CURVE ( 'NONE', #312, #177, #399, .T. ) ;
#76 = VERTEX_POINT ( 'NONE', #478 ) ;
#77 = DIRECTION ( 'NONE',  ( -1.000000000000000000, 0.000000000000000000, 0.000000000000000000 ) ) ;
#78 = VECTOR ( 'NONE', #392, 1000.000000000000227 ) ;
#79 = PLANE ( 'NONE',  #423 ) ;
#80 = ORIENTED_EDGE ( 'NONE', *, *, #115, .T. ) ;
#81 = PLANE ( 'NONE',  #632 ) ;
#82 = VECTOR ( 'NONE', #579, 1000.000000000000000 ) ;
#83 = DIRECTION ( 'NONE',  ( 0.000000000000000000, 0.000000000000000000, 1.000000000000000000 ) ) ;
#84 = ORIENTED_EDGE ( 'NONE', *, *, #584, .F. ) ;
#85 = DIRECTION ( 'NONE',  ( -0.4999999999999996114, 0.8660254037844388186, 0.000000000000000000 ) ) ;
#86 = EDGE_CURVE ( 'NONE', #674, #148, #374, .T. ) ;
#87 = PLANE ( 'NONE',  #637 ) ;
#88 = ORIENTED_EDGE ( 'NONE', *, *, #388, .T. ) ;
#89 = CARTESIAN_POINT ( 'NONE',  ( 2.071371021540415747, -24.41228014936586632, 6.000000000000000000 ) ) ;
#90 = ORIENTED_EDGE ( 'NONE', *, *, #276, .T. ) ;
#91 = VECTOR ( 'NONE', #72, 1000.000000000000000 ) ;
#92 = EDGE_CURVE ( 'NONE', #339, #208, #221, .T. ) ;
#93 = PRODUCT ( 'LAB-001-020-120_00', 'LAB-001-020-120_00', '', ( #590 ) ) ;
#94 = ORIENTED_EDGE ( 'NONE', *, *, #347, .T. ) ;
#95 = DIRECTION ( 'NONE',  ( -0.4999999999999937272, 0.8660254037844422603, 0.000000000000000000 ) ) ;
#96 = ORIENTED_EDGE ( 'NONE', *, *, #125, .F. ) ;
#97 = SURFACE_SIDE_STYLE ('',( #414 ) ) ;
#98 = SHAPE_DEFINITION_REPRESENTATION ( #527, #461 ) ;
#99 = COLOUR_RGB ( '',1.000000000000000000, 1.000000000000000000, 1.000000000000000000 ) ;
#100 = ORIENTED_EDGE ( 'NONE', *, *, #125, .T. ) ;
#101 = ADVANCED_FACE ( 'NONE', ( #165 ), #281, .F. ) ;
#102 = AXIS2_PLACEMENT_3D ( 'NONE', #67, #117, #485 ) ;
#103 = DIRECTION ( 'NONE',  ( 1.000000000000000000, 0.000000000000000000, 0.000000000000000000 ) ) ;
#104 = ORIENTED_EDGE ( 'NONE', *, *, #441, .F. ) ;
#105 = EDGE_CURVE ( 'NONE', #523, #242, #600, .T. ) ;
#106 = EDGE_LOOP ( 'NONE', ( #18, #420 ) ) ;
#107 = ORIENTED_EDGE ( 'NONE', *, *, #441, .T. ) ;
#108 = ORIENTED_EDGE ( 'NONE', *, *, #639, .T. ) ;
#109 = DIRECTION ( 'NONE',  ( 6.867723879941292569E-15, 1.000000000000000000, 0.000000000000000000 ) ) ;
#110 = AXIS2_PLACEMENT_3D ( 'NONE', #634, #155, #212 ) ;
#111 = VERTEX_POINT ( 'NONE', #173 ) ;
#112 = CARTESIAN_POINT ( 'NONE',  ( 2.020725942163516198, -24.50000000000001066, 6.000000000000000000 ) ) ;
#113 = CIRCLE ( 'NONE', #214, 24.50000000000000000 ) ;
#114 = CARTESIAN_POINT ( 'NONE',  ( 2.071371021540414414, -24.41228014936586632, 3.000000000000000000 ) ) ;
#115 = EDGE_CURVE ( 'NONE', #248, #561, #164, .T. ) ;
#116 = DIRECTION ( 'NONE',  ( 1.000000000000000000, 0.000000000000000000, 0.000000000000000000 ) ) ;
#117 = DIRECTION ( 'NONE',  ( -0.8660254037844388186, -0.4999999999999997224, 0.000000000000000000 ) ) ;
#118 = EDGE_CURVE ( 'NONE', #148, #58, #230, .T. ) ;
#119 = DIRECTION ( 'NONE',  ( 1.000000000000000000, 0.000000000000000000, 0.000000000000000000 ) ) ;
#120 = LINE ( 'NONE', #544, #671 ) ;
#121 = AXIS2_PLACEMENT_3D ( 'NONE', #375, #426, #119 ) ;
#122 = STYLED_ITEM ( 'NONE', ( #305 ), #461 ) ;
#123 = ORIENTED_EDGE ( 'NONE', *, *, #205, .T. ) ;
#124 = CYLINDRICAL_SURFACE ( 'NONE', #220, 2.200000000000000178 ) ;
#125 = EDGE_CURVE ( 'NONE', #412, #370, #225, .T. ) ;
#126 = FACE_OUTER_BOUND ( 'NONE', #617, .T. ) ;
#127 = EDGE_LOOP ( 'NONE', ( #334, #615, #653, #386 ) ) ;
#128 = VECTOR ( 'NONE', #500, 1000.000000000000000 ) ;
#129 = DIRECTION ( 'NONE',  ( -0.000000000000000000, -0.000000000000000000, 1.000000000000000000 ) ) ;
#130 = CARTESIAN_POINT ( 'NONE',  ( 2.020725942163516198, -24.50000000000001066, 3.000000000000000000 ) ) ;
#131 = ORIENTED_EDGE ( 'NONE', *, *, #332, .T. ) ;
#132 = DIRECTION ( 'NONE',  ( -0.8660254037844351549, 0.5000000000000061062, 0.000000000000000000 ) ) ;
#133 = ORIENTED_EDGE ( 'NONE', *, *, #35, .F. ) ;
#134 = ORIENTED_EDGE ( 'NONE', *, *, #683, .T. ) ;
#135 = UNCERTAINTY_MEASURE_WITH_UNIT (LENGTH_MEASURE( 1.000000000000000082E-05 ), #300, 'distance_accuracy_value', 'NONE');
#136 = SURFACE_SIDE_STYLE ('',( #142 ) ) ;
#137 = STYLED_ITEM ( 'NONE', ( #450 ), #667 ) ;
#138 = ORIENTED_EDGE ( 'NONE', *, *, #266, .F. ) ;
#139 = CYLINDRICAL_SURFACE ( 'NONE', #252, 24.50000000000000000 ) ;
#140 = VECTOR ( 'NONE', #95, 1000.000000000000114 ) ;
#141 = EDGE_LOOP ( 'NONE', ( #286, #84, #199, #133, #188, #279, #36, #525 ) ) ;
#142 = SURFACE_STYLE_FILL_AREA ( #30 ) ;
#143 = DIRECTION ( 'NONE',  ( 0.8660254037844422603, 0.4999999999999937272, 0.000000000000000000 ) ) ;
#144 = VERTEX_POINT ( 'NONE', #648 ) ;
#145 = EDGE_CURVE ( 'NONE', #312, #550, #596, .T. ) ;
#146 = ORIENTED_EDGE ( 'NONE', *, *, #432, .F. ) ;
#147 = CARTESIAN_POINT ( 'NONE',  ( -1.466422162314116009E-13, -21.00000000000000000, 3.000000000000000000 ) ) ;
#148 = VERTEX_POINT ( 'NONE', #114 ) ;
#149 = DIRECTION ( 'NONE',  ( 1.000000000000000000, 0.000000000000000000, 0.000000000000000000 ) ) ;
#150 = DIRECTION ( 'NONE',  ( 0.5000000000000062172, 0.8660254037844350439, 0.000000000000000000 ) ) ;
#151 = DIRECTION ( 'NONE',  ( 0.000000000000000000, 0.000000000000000000, 1.000000000000000000 ) ) ;
#152 = ADVANCED_FACE ( 'NONE', ( #319 ), #488, .F. ) ;
#153 = DIRECTION ( 'NONE',  ( -0.000000000000000000, -0.000000000000000000, -1.000000000000000000 ) ) ;
#154 = CARTESIAN_POINT ( 'NONE',  ( -2.020725942163813293, -17.49999999999998579, 6.000000000000000000 ) ) ;
#155 = DIRECTION ( 'NONE',  ( 0.000000000000000000, 0.000000000000000000, 1.000000000000000000 ) ) ;
#156 = AXIS2_PLACEMENT_3D ( 'NONE', #272, #492, #440 ) ;
#157 = ORIENTED_EDGE ( 'NONE', *, *, #266, .T. ) ;
#158 = CYLINDRICAL_SURFACE ( 'NONE', #27, 24.50000000000000000 ) ;
#159 = CARTESIAN_POINT ( 'NONE',  ( -2.020725942163693389, 17.49999999999999645, 6.000000000000000000 ) ) ;
#160 = DIRECTION ( 'NONE',  ( 0.000000000000000000, 0.000000000000000000, 1.000000000000000000 ) ) ;
#161 = EDGE_CURVE ( 'NONE', #677, #550, #459, .T. ) ;
#162 = DIRECTION ( 'NONE',  ( -0.000000000000000000, -0.000000000000000000, 1.000000000000000000 ) ) ;
#163 = DIRECTION ( 'NONE',  ( 0.000000000000000000, 0.000000000000000000, 1.000000000000000000 ) ) ;
#164 = CIRCLE ( 'NONE', #507, 2.200000000000000178 ) ;
#165 = FACE_OUTER_BOUND ( 'NONE', #171, .T. ) ;
#166 = ORIENTED_EDGE ( 'NONE', *, *, #356, .F. ) ;
#167 = ORIENTED_EDGE ( 'NONE', *, *, #542, .F. ) ;
#168 = LINE ( 'NONE', #638, #559 ) ;
#169 = CARTESIAN_POINT ( 'NONE',  ( 0.000000000000000000, 0.000000000000000000, 3.000000000000000000 ) ) ;
#170 = EDGE_CURVE ( 'NONE', #391, #339, #120, .T. ) ;
#171 = EDGE_LOOP ( 'NONE', ( #202, #47, #222, #404 ) ) ;
#172 = DIRECTION ( 'NONE',  ( 1.000000000000000000, 0.000000000000000000, -0.000000000000000000 ) ) ;
#173 = CARTESIAN_POINT ( 'NONE',  ( -24.50000000000000000, 0.000000000000000000, 0.000000000000000000 ) ) ;
#174 = VECTOR ( 'NONE', #622, 1000.000000000000000 ) ;
#175 = CARTESIAN_POINT ( 'NONE',  ( -2.020725942163693389, 17.49999999999999645, 3.000000000000000000 ) ) ;
#176 = CARTESIAN_POINT ( 'NONE',  ( 4.041451884327233124, -21.00000000000002132, 6.000000000000000000 ) ) ;
#177 = VERTEX_POINT ( 'NONE', #644 ) ;
#178 = CIRCLE ( 'NONE', #41, 24.50000000000000000 ) ;
#179 = DIRECTION ( 'NONE',  ( -0.4999999999999996114, 0.8660254037844388186, 0.000000000000000000 ) ) ;
#180 = ORIENTED_EDGE ( 'NONE', *, *, #118, .F. ) ;
#181 = DIRECTION ( 'NONE',  ( 1.000000000000000000, 0.000000000000000000, 0.000000000000000000 ) ) ;
#182 = EDGE_CURVE ( 'NONE', #192, #442, #549, .T. ) ;
#183 = DIRECTION ( 'NONE',  ( 1.000000000000000000, 0.000000000000000000, -0.000000000000000000 ) ) ;
#184 = ORIENTED_EDGE ( 'NONE', *, *, #388, .F. ) ;
#185 = DIRECTION ( 'NONE',  ( 1.000000000000000000, 0.000000000000000000, 0.000000000000000000 ) ) ;
#186 = CIRCLE ( 'NONE', #504, 24.50000000000000000 ) ;
#187 = PLANE ( 'NONE',  #310 ) ;
#188 = ORIENTED_EDGE ( 'NONE', *, *, #571, .T. ) ;
#189 = DIRECTION ( 'NONE',  ( -0.000000000000000000, -0.000000000000000000, -1.000000000000000000 ) ) ;
#190 = VECTOR ( 'NONE', #254, 999.9999999999998863 ) ;
#191 = DIRECTION ( 'NONE',  ( -0.4999999999999996114, 0.8660254037844388186, 0.000000000000000000 ) ) ;
#192 = VERTEX_POINT ( 'NONE', #63 ) ;
#193 = FACE_OUTER_BOUND ( 'NONE', #446, .T. ) ;
#194 = ORIENTED_EDGE ( 'NONE', *, *, #49, .F. ) ;
#195 = EDGE_CURVE ( 'NONE', #177, #621, #178, .T. ) ;
#196 = VECTOR ( 'NONE', #9, 1000.000000000000114 ) ;
#197 = CARTESIAN_POINT ( 'NONE',  ( 2.071371021540593826, 24.41228014936584856, 6.000000000000000000 ) ) ;
#198 = VECTOR ( 'NONE', #290, 1000.000000000000114 ) ;
#199 = ORIENTED_EDGE ( 'NONE', *, *, #86, .T. ) ;
#200 = FILL_AREA_STYLE ('',( #580 ) ) ;
#201 = VECTOR ( 'NONE', #324, 1000.000000000000000 ) ;
#202 = ORIENTED_EDGE ( 'NONE', *, *, #519, .T. ) ;
#203 = LINE ( 'NONE', #418, #587 ) ;
#204 =( NAMED_UNIT ( * ) PLANE_ANGLE_UNIT ( ) SI_UNIT ( $, .RADIAN. ) );
#205 = EDGE_CURVE ( 'NONE', #438, #144, #606, .T. ) ;
#206 = EDGE_LOOP ( 'NONE', ( #292, #554, #401, #282, #493, #505, #215, #529, #464, #658, #545, #397, #535, #361 ) ) ;
#207 = DIRECTION ( 'NONE',  ( -0.8660254037844384856, 0.5000000000000003331, 0.000000000000000000 ) ) ;
#208 = VERTEX_POINT ( 'NONE', #228 ) ;
#209 = CIRCLE ( 'NONE', #407, 24.50000000000000000 ) ;
#210 = MECHANICAL_DESIGN_GEOMETRIC_PRESENTATION_REPRESENTATION (  '', ( #122 ), #480 ) ;
#211 = FACE_OUTER_BOUND ( 'NONE', #588, .T. ) ;
#212 = DIRECTION ( 'NONE',  ( 1.000000000000000000, 0.000000000000000000, 0.000000000000000000 ) ) ;
#213 = DIRECTION ( 'NONE',  ( 0.5000000000000062172, 0.8660254037844350439, 0.000000000000000000 ) ) ;
#214 = AXIS2_PLACEMENT_3D ( 'NONE', #314, #151, #149 ) ;
#215 = ORIENTED_EDGE ( 'NONE', *, *, #332, .F. ) ;
#216 = CARTESIAN_POINT ( 'NONE',  ( 0.000000000000000000, 0.000000000000000000, 6.000000000000000000 ) ) ;
#217 = CARTESIAN_POINT ( 'NONE',  ( 0.000000000000000000, 0.000000000000000000, 6.000000000000000000 ) ) ;
#218 = FACE_OUTER_BOUND ( 'NONE', #393, .T. ) ;
#219 = ADVANCED_FACE ( 'NONE', ( #126 ), #642, .F. ) ;
#220 = AXIS2_PLACEMENT_3D ( 'NONE', #268, #486, #11 ) ;
#221 = LINE ( 'NONE', #381, #69 ) ;
#222 = ORIENTED_EDGE ( 'NONE', *, *, #663, .F. ) ;
#223 = DIRECTION ( 'NONE',  ( -0.000000000000000000, -0.000000000000000000, -1.000000000000000000 ) ) ;
#224 = EDGE_CURVE ( 'NONE', #597, #342, #598, .T. ) ;
#225 = LINE ( 'NONE', #437, #201 ) ;
#226 = ORIENTED_EDGE ( 'NONE', *, *, #161, .F. ) ;
#227 = LINE ( 'NONE', #429, #196 ) ;
#228 = CARTESIAN_POINT ( 'NONE',  ( -4.041451884327530664, -20.99999999999996803, 6.000000000000000000 ) ) ;
#229 = CARTESIAN_POINT ( 'NONE',  ( 0.000000000000000000, 0.000000000000000000, 6.000000000000000000 ) ) ;
#230 = LINE ( 'NONE', #21, #128 ) ;
#231 = AXIS2_PLACEMENT_3D ( 'NONE', #371, #163, #172 ) ;
#232 = ORIENTED_EDGE ( 'NONE', *, *, #649, .T. ) ;
#233 = AXIS2_PLACEMENT_3D ( 'NONE', #229, #340, #443 ) ;
#234 = EDGE_LOOP ( 'NONE', ( #42, #157 ) ) ;
#235 = CARTESIAN_POINT ( 'NONE',  ( 4.041451884327233124, -21.00000000000002132, 3.000000000000000000 ) ) ;
#236 = CARTESIAN_POINT ( 'NONE',  ( 4.041451884327381450, 20.99999999999999645, 6.000000000000000000 ) ) ;
#237 = VERTEX_POINT ( 'NONE', #176 ) ;
#238 = SURFACE_STYLE_USAGE ( .BOTH. , #136 ) ;
#239 = EDGE_CURVE ( 'NONE', #76, #669, #390, .T. ) ;
#240 = ORIENTED_EDGE ( 'NONE', *, *, #75, .F. ) ;
#241 = LINE ( 'NONE', #608, #78 ) ;
#242 = VERTEX_POINT ( 'NONE', #458 ) ;
#243 = LINE ( 'NONE', #235, #656 ) ;
#244 = VECTOR ( 'NONE', #322, 1000.000000000000000 ) ;
#245 = ORIENTED_EDGE ( 'NONE', *, *, #145, .F. ) ;
#246 = CIRCLE ( 'NONE', #684, 2.200000000000000178 ) ;
#247 = FACE_OUTER_BOUND ( 'NONE', #206, .T. ) ;
#248 = VERTEX_POINT ( 'NONE', #294 ) ;
#249 = DIRECTION ( 'NONE',  ( -0.000000000000000000, -0.000000000000000000, 1.000000000000000000 ) ) ;
#250 = LINE ( 'NONE', #585, #436 ) ;
#251 = DIRECTION ( 'NONE',  ( 1.000000000000000000, 0.000000000000000000, 0.000000000000000000 ) ) ;
#252 = AXIS2_PLACEMENT_3D ( 'NONE', #37, #189, #77 ) ;
#253 = LINE ( 'NONE', #2, #532 ) ;
#254 = DIRECTION ( 'NONE',  ( -0.5000000000000061062, -0.8660254037844351549, 0.000000000000000000 ) ) ;
#255 = ADVANCED_FACE ( 'NONE', ( #28 ), #79, .F. ) ;
#256 = CARTESIAN_POINT ( 'NONE',  ( 2.200000000000000178, 21.00000000000000000, 0.000000000000000000 ) ) ;
#257 = PLANE ( 'NONE',  #646 ) ;
#258 = DIRECTION ( 'NONE',  ( 1.000000000000000000, 0.000000000000000000, 0.000000000000000000 ) ) ;
#259 = DIRECTION ( 'NONE',  ( -1.000000000000000000, 6.867723879941292569E-15, 0.000000000000000000 ) ) ;
#260 = EDGE_LOOP ( 'NONE', ( #56, #289 ) ) ;
#261 = AXIS2_PLACEMENT_3D ( 'NONE', #635, #359, #308 ) ;
#262 = CARTESIAN_POINT ( 'NONE',  ( 0.000000000000000000, 0.000000000000000000, 3.000000000000000000 ) ) ;
#263 = EDGE_CURVE ( 'NONE', #412, #391, #556, .T. ) ;
#264 = CARTESIAN_POINT ( 'NONE',  ( 2.020725942163571265, -17.50000000000001066, 3.000000000000000000 ) ) ;
#265 = DIRECTION ( 'NONE',  ( -0.000000000000000000, 0.000000000000000000, -1.000000000000000000 ) ) ;
#266 = EDGE_CURVE ( 'NONE', #59, #68, #246, .T. ) ;
#267 = APPLICATION_PROTOCOL_DEFINITION ( 'draft international standard', 'automotive_design', 1998, #462 ) ;
#268 = CARTESIAN_POINT ( 'NONE',  ( 0.000000000000000000, 21.00000000000000000, 0.000000000000000000 ) ) ;
#269 = DIRECTION ( 'NONE',  ( 1.000000000000000000, 0.000000000000000000, 0.000000000000000000 ) ) ;
#270 = DIRECTION ( 'NONE',  ( 1.000000000000000000, 0.000000000000000000, 0.000000000000000000 ) ) ;
#271 = AXIS2_PLACEMENT_3D ( 'NONE', #147, #153, #48 ) ;
#272 = CARTESIAN_POINT ( 'NONE',  ( 2.020725942163690725, 17.49999999999999645, 3.000000000000000000 ) ) ;
#273 = ORIENTED_EDGE ( 'NONE', *, *, #263, .F. ) ;
#274 = VERTEX_POINT ( 'NONE', #508 ) ;
#275 = LINE ( 'NONE', #64, #244 ) ;
#276 = EDGE_CURVE ( 'NONE', #242, #353, #463, .T. ) ;
#277 = VECTOR ( 'NONE', #427, 1000.000000000000000 ) ;
#278 = CARTESIAN_POINT ( 'NONE',  ( -4.041451884327528887, -20.99999999999997158, 3.000000000000000000 ) ) ;
#279 = ORIENTED_EDGE ( 'NONE', *, *, #195, .F. ) ;
#280 = LINE ( 'NONE', #398, #362 ) ;
#281 = PLANE ( 'NONE',  #102 ) ;
#282 = ORIENTED_EDGE ( 'NONE', *, *, #316, .F. ) ;
#283 = LINE ( 'NONE', #563, #38 ) ;
#284 = DIRECTION ( 'NONE',  ( 0.8660254037844350439, -0.5000000000000062172, 0.000000000000000000 ) ) ;
#285 = ADVANCED_FACE ( 'NONE', ( #247 ), #187, .T. ) ;
#286 = ORIENTED_EDGE ( 'NONE', *, *, #182, .F. ) ;
#287 = CARTESIAN_POINT ( 'NONE',  ( -4.041451884327528887, -20.99999999999997158, 3.000000000000000000 ) ) ;
#288 = AXIS2_PLACEMENT_3D ( 'NONE', #652, #329, #553 ) ;
#289 = ORIENTED_EDGE ( 'NONE', *, *, #673, .T. ) ;
#290 = DIRECTION ( 'NONE',  ( 0.4999999999999997224, -0.8660254037844388186, 0.000000000000000000 ) ) ;
#291 = DIRECTION ( 'NONE',  ( 0.000000000000000000, 0.000000000000000000, 1.000000000000000000 ) ) ;
#292 = ORIENTED_EDGE ( 'NONE', *, *, #45, .F. ) ;
#293 = CARTESIAN_POINT ( 'NONE',  ( 4.041451884327381450, 20.99999999999999645, 3.000000000000000000 ) ) ;
#294 = CARTESIAN_POINT ( 'NONE',  ( -2.200000000000000178, 21.00000000000000000, 3.000000000000000000 ) ) ;
#295 = VECTOR ( 'NONE', #602, 1000.000000000000000 ) ;
#296 = ORIENTED_EDGE ( 'NONE', *, *, #511, .F. ) ;
#297 = CIRCLE ( 'NONE', #271, 2.200000000000000622 ) ;
#298 = PRODUCT_DEFINITION ( 'UNKNOWN', '', #455, #33 ) ;
#299 = ORIENTED_EDGE ( 'NONE', *, *, #170, .T. ) ;
#300 =( LENGTH_UNIT ( ) NAMED_UNIT ( * ) SI_UNIT ( .MILLI., .METRE. ) );
#301 = FACE_OUTER_BOUND ( 'NONE', #451, .T. ) ;
#302 = ORIENTED_EDGE ( 'NONE', *, *, #224, .F. ) ;
#303 = CARTESIAN_POINT ( 'NONE',  ( 2.071371021540589386, 24.41228014936584856, 3.000000000000000000 ) ) ;
#304 = ORIENTED_EDGE ( 'NONE', *, *, #639, .F. ) ;
#305 = PRESENTATION_STYLE_ASSIGNMENT (( #675 ) ) ;
#306 = ADVANCED_FACE ( 'NONE', ( #395, #620, #515 ), #87, .F. ) ;
#307 = PRESENTATION_LAYER_ASSIGNMENT (  '', '', ( #137 ) ) ;
#308 = DIRECTION ( 'NONE',  ( 1.000000000000000000, 0.000000000000000000, 0.000000000000000000 ) ) ;
#309 = FACE_BOUND ( 'NONE', #338, .T. ) ;
#310 = AXIS2_PLACEMENT_3D ( 'NONE', #74, #291, #183 ) ;
#311 = ORIENTED_EDGE ( 'NONE', *, *, #239, .F. ) ;
#312 = VERTEX_POINT ( 'NONE', #672 ) ;
#313 = ORIENTED_EDGE ( 'NONE', *, *, #568, .F. ) ;
#314 = CARTESIAN_POINT ( 'NONE',  ( 0.000000000000000000, 0.000000000000000000, 3.000000000000000000 ) ) ;
#315 = CARTESIAN_POINT ( 'NONE',  ( -2.020725942163813293, -17.49999999999998579, 3.000000000000000000 ) ) ;
#316 = EDGE_CURVE ( 'NONE', #208, #621, #403, .T. ) ;
#317 = DIRECTION ( 'NONE',  ( -0.000000000000000000, -0.000000000000000000, -1.000000000000000000 ) ) ;
#318 = CARTESIAN_POINT ( 'NONE',  ( 0.000000000000000000, 21.00000000000000000, 3.000000000000000000 ) ) ;
#319 = FACE_OUTER_BOUND ( 'NONE', #365, .T. ) ;
#320 = DIRECTION ( 'NONE',  ( 1.000000000000000000, 0.000000000000000000, 0.000000000000000000 ) ) ;
#321 = CARTESIAN_POINT ( 'NONE',  ( -2.071371021540589386, 24.41228014936585566, 6.000000000000000000 ) ) ;
#322 = DIRECTION ( 'NONE',  ( -0.000000000000000000, -0.000000000000000000, -1.000000000000000000 ) ) ;
#323 = VECTOR ( 'NONE', #249, 1000.000000000000000 ) ;
#324 = DIRECTION ( 'NONE',  ( -0.000000000000000000, -0.000000000000000000, 1.000000000000000000 ) ) ;
#325 = ORIENTED_EDGE ( 'NONE', *, *, #568, .T. ) ;
#326 = FACE_OUTER_BOUND ( 'NONE', #127, .T. ) ;
#327 = ADVANCED_FACE ( 'NONE', ( #193 ), #406, .F. ) ;
#328 = VECTOR ( 'NONE', #473, 1000.000000000000114 ) ;
#329 = DIRECTION ( 'NONE',  ( 0.000000000000000000, 0.000000000000000000, 1.000000000000000000 ) ) ;
#330 = VERTEX_POINT ( 'NONE', #522 ) ;
#331 = LINE ( 'NONE', #287, #627 ) ;
#332 = EDGE_CURVE ( 'NONE', #237, #370, #679, .T. ) ;
#333 = DIRECTION ( 'NONE',  ( 1.000000000000000000, 0.000000000000000000, -0.000000000000000000 ) ) ;
#334 = ORIENTED_EDGE ( 'NONE', *, *, #25, .T. ) ;
#335 = LINE ( 'NONE', #558, #13 ) ;
#336 = AXIS2_PLACEMENT_3D ( 'NONE', #15, #435, #270 ) ;
#337 =( GEOMETRIC_REPRESENTATION_CONTEXT ( 3 ) GLOBAL_UNCERTAINTY_ASSIGNED_CONTEXT ( ( #468 ) ) GLOBAL_UNIT_ASSIGNED_CONTEXT ( ( #530, #354, #678 ) ) REPRESENTATION_CONTEXT ( 'NONE', 'WORKASPACE' ) );
#338 = EDGE_LOOP ( 'NONE', ( #592, #80 ) ) ;
#339 = VERTEX_POINT ( 'NONE', #686 ) ;
#340 = DIRECTION ( 'NONE',  ( 0.000000000000000000, 0.000000000000000000, 1.000000000000000000 ) ) ;
#341 = CLOSED_SHELL ( 'NONE', ( #474, #524, #71, #366, #31, #630, #285, #306, #344, #548, #4, #219, #668, #101, #327, #152, #465, #539, #411, #255 ) ) ;
#342 = VERTEX_POINT ( 'NONE', #363 ) ;
#343 = CARTESIAN_POINT ( 'NONE',  ( 4.041451884327381450, 20.99999999999999645, 3.000000000000000000 ) ) ;
#344 = ADVANCED_FACE ( 'NONE', ( #301 ), #257, .F. ) ;
#345 = ORIENTED_EDGE ( 'NONE', *, *, #360, .F. ) ;
#346 = DIRECTION ( 'NONE',  ( -0.000000000000000000, -0.000000000000000000, -1.000000000000000000 ) ) ;
#347 = EDGE_CURVE ( 'NONE', #611, #51, #250, .T. ) ;
#348 = DIRECTION ( 'NONE',  ( 0.000000000000000000, 0.000000000000000000, 1.000000000000000000 ) ) ;
#349 = CIRCLE ( 'NONE', #336, 2.200000000000000178 ) ;
#350 = ORIENTED_EDGE ( 'NONE', *, *, #263, .T. ) ;
#351 = DIRECTION ( 'NONE',  ( 0.000000000000000000, -0.000000000000000000, -1.000000000000000000 ) ) ;
#352 = CIRCLE ( 'NONE', #593, 2.200000000000000622 ) ;
#353 = VERTEX_POINT ( 'NONE', #197 ) ;
#354 =( NAMED_UNIT ( * ) PLANE_ANGLE_UNIT ( ) SI_UNIT ( $, .RADIAN. ) );
#355 = LINE ( 'NONE', #578, #140 ) ;
#356 = EDGE_CURVE ( 'NONE', #58, #412, #355, .T. ) ;
#357 = CARTESIAN_POINT ( 'NONE',  ( -2.020725942163687172, 24.49999999999999645, 6.000000000000000000 ) ) ;
#358 = FACE_OUTER_BOUND ( 'NONE', #628, .T. ) ;
#359 = DIRECTION ( 'NONE',  ( -0.000000000000000000, -0.000000000000000000, 1.000000000000000000 ) ) ;
#360 = EDGE_CURVE ( 'NONE', #438, #523, #253, .T. ) ;
#361 = ORIENTED_EDGE ( 'NONE', *, *, #519, .F. ) ;
#362 = VECTOR ( 'NONE', #510, 1000.000000000000000 ) ;
#363 = CARTESIAN_POINT ( 'NONE',  ( 2.199999999999854072, -21.00000000000000000, 0.000000000000000000 ) ) ;
#364 = CARTESIAN_POINT ( 'NONE',  ( -1.466422162314116009E-13, -21.00000000000000000, 0.000000000000000000 ) ) ;
#365 = EDGE_LOOP ( 'NONE', ( #304, #40, #589, #368 ) ) ;
#366 = ADVANCED_FACE ( 'NONE', ( #682 ), #419, .F. ) ;
#367 = VECTOR ( 'NONE', #191, 1000.000000000000114 ) ;
#368 = ORIENTED_EDGE ( 'NONE', *, *, #571, .F. ) ;
#369 = ORIENTED_EDGE ( 'NONE', *, *, #182, .T. ) ;
#370 = VERTEX_POINT ( 'NONE', #20 ) ;
#371 = CARTESIAN_POINT ( 'NONE',  ( 0.000000000000000000, 0.000000000000000000, 3.000000000000000000 ) ) ;
#372 = DIRECTION ( 'NONE',  ( -0.000000000000000000, -0.000000000000000000, 1.000000000000000000 ) ) ;
#373 = DIRECTION ( 'NONE',  ( -0.000000000000000000, -0.000000000000000000, 1.000000000000000000 ) ) ;
#374 = LINE ( 'NONE', #538, #389 ) ;
#375 = CARTESIAN_POINT ( 'NONE',  ( -1.466422162314116009E-13, -21.00000000000000000, 0.000000000000000000 ) ) ;
#376 = VECTOR ( 'NONE', #582, 1000.000000000000227 ) ;
#377 = DIRECTION ( 'NONE',  ( 1.000000000000000000, 0.000000000000000000, 0.000000000000000000 ) ) ;
#378 = EDGE_CURVE ( 'NONE', #68, #59, #349, .T. ) ;
#379 = ORIENTED_EDGE ( 'NONE', *, *, #115, .F. ) ;
#380 = DIRECTION ( 'NONE',  ( -1.000000000000000000, 0.000000000000000000, 0.000000000000000000 ) ) ;
#381 = CARTESIAN_POINT ( 'NONE',  ( -4.041451884327528887, -20.99999999999997158, 3.000000000000000000 ) ) ;
#382 = ORIENTED_EDGE ( 'NONE', *, *, #542, .T. ) ;
#383 = FACE_OUTER_BOUND ( 'NONE', #494, .T. ) ;
#384 = COLOUR_RGB ( '',1.000000000000000000, 1.000000000000000000, 1.000000000000000000 ) ;
#385 = DIRECTION ( 'NONE',  ( -0.5000000000000061062, -0.8660254037844351549, 0.000000000000000000 ) ) ;
#386 = ORIENTED_EDGE ( 'NONE', *, *, #53, .T. ) ;
#387 = DIRECTION ( 'NONE',  ( 0.8660254037844388186, 0.4999999999999996114, 0.000000000000000000 ) ) ;
#388 = EDGE_CURVE ( 'NONE', #677, #353, #647, .T. ) ;
#389 = VECTOR ( 'NONE', #317, 1000.000000000000000 ) ;
#390 = LINE ( 'NONE', #610, #50 ) ;
#391 = VERTEX_POINT ( 'NONE', #315 ) ;
#392 = DIRECTION ( 'NONE',  ( -0.5000000000000002220, -0.8660254037844384856, 0.000000000000000000 ) ) ;
#393 = EDGE_LOOP ( 'NONE', ( #14, #29, #46, #350, #299, #108 ) ) ;
#394 = CARTESIAN_POINT ( 'NONE',  ( -4.041451884327380562, 20.99999999999999289, 3.000000000000000000 ) ) ;
#395 = FACE_BOUND ( 'NONE', #234, .T. ) ;
#396 = MECHANICAL_DESIGN_GEOMETRIC_PRESENTATION_REPRESENTATION (  '', ( #137 ), #337 ) ;
#397 = ORIENTED_EDGE ( 'NONE', *, *, #490, .F. ) ;
#398 = CARTESIAN_POINT ( 'NONE',  ( -2.020725942163693389, 17.49999999999999645, 3.000000000000000000 ) ) ;
#399 = CIRCLE ( 'NONE', #8, 24.50000000000000000 ) ;
#400 = EDGE_CURVE ( 'NONE', #342, #597, #655, .T. ) ;
#401 = ORIENTED_EDGE ( 'NONE', *, *, #195, .T. ) ;
#402 = CARTESIAN_POINT ( 'NONE',  ( 2.020725942163571265, -17.50000000000001066, 6.000000000000000000 ) ) ;
#403 = LINE ( 'NONE', #676, #472 ) ;
#404 = ORIENTED_EDGE ( 'NONE', *, *, #239, .T. ) ;
#405 =( LENGTH_UNIT ( ) NAMED_UNIT ( * ) SI_UNIT ( .MILLI., .METRE. ) );
#406 = PLANE ( 'NONE',  #564 ) ;
#407 = AXIS2_PLACEMENT_3D ( 'NONE', #216, #160, #116 ) ;
#408 = ORIENTED_EDGE ( 'NONE', *, *, #560, .F. ) ;
#409 = LINE ( 'NONE', #526, #323 ) ;
#410 =( GEOMETRIC_REPRESENTATION_CONTEXT ( 3 ) GLOBAL_UNCERTAINTY_ASSIGNED_CONTEXT ( ( #135 ) ) GLOBAL_UNIT_ASSIGNED_CONTEXT ( ( #300, #204, #417 ) ) REPRESENTATION_CONTEXT ( 'NONE', 'WORKASPACE' ) );
#411 = ADVANCED_FACE ( 'NONE', ( #643 ), #66, .F. ) ;
#412 = VERTEX_POINT ( 'NONE', #605 ) ;
#413 = EDGE_LOOP ( 'NONE', ( #146, #369, #501, #296, #240, #534, #226, #88 ) ) ;
#414 = SURFACE_STYLE_FILL_AREA ( #200 ) ;
#415 = APPLICATION_PROTOCOL_DEFINITION ( 'draft international standard', 'automotive_design', 1998, #424 ) ;
#416 = ORIENTED_EDGE ( 'NONE', *, *, #683, .F. ) ;
#417 =( NAMED_UNIT ( * ) SI_UNIT ( $, .STERADIAN. ) SOLID_ANGLE_UNIT ( ) );
#418 = CARTESIAN_POINT ( 'NONE',  ( -2.020725942163813293, -17.49999999999998579, 3.000000000000000000 ) ) ;
#419 = CYLINDRICAL_SURFACE ( 'NONE', #261, 2.200000000000000622 ) ;
#420 = ORIENTED_EDGE ( 'NONE', *, *, #613, .F. ) ;
#421 = CARTESIAN_POINT ( 'NONE',  ( 2.199999999999854072, -21.00000000000000000, 0.000000000000000000 ) ) ;
#422 = CARTESIAN_POINT ( 'NONE',  ( -2.020725942163813293, -17.49999999999998579, 6.000000000000000000 ) ) ;
#423 = AXIS2_PLACEMENT_3D ( 'NONE', #448, #143, #454 ) ;
#424 = APPLICATION_CONTEXT ( 'automotive_design' ) ;
#425 = DIRECTION ( 'NONE',  ( -0.000000000000000000, -0.000000000000000000, 1.000000000000000000 ) ) ;
#426 = DIRECTION ( 'NONE',  ( 0.000000000000000000, 0.000000000000000000, 1.000000000000000000 ) ) ;
#427 = DIRECTION ( 'NONE',  ( -0.000000000000000000, -0.000000000000000000, -1.000000000000000000 ) ) ;
#428 = ORIENTED_EDGE ( 'NONE', *, *, #105, .F. ) ;
#429 = CARTESIAN_POINT ( 'NONE',  ( -4.041451884327380562, 20.99999999999999289, 6.000000000000000000 ) ) ;
#430 = CIRCLE ( 'NONE', #444, 2.200000000000000178 ) ;
#431 = VECTOR ( 'NONE', #6, 1000.000000000000114 ) ;
#432 = EDGE_CURVE ( 'NONE', #192, #353, #209, .T. ) ;
#433 = DIRECTION ( 'NONE',  ( -0.000000000000000000, -0.000000000000000000, 1.000000000000000000 ) ) ;
#434 = ORIENTED_EDGE ( 'NONE', *, *, #378, .F. ) ;
#435 = DIRECTION ( 'NONE',  ( 0.000000000000000000, 0.000000000000000000, 1.000000000000000000 ) ) ;
#436 = VECTOR ( 'NONE', #466, 1000.000000000000000 ) ;
#437 = CARTESIAN_POINT ( 'NONE',  ( 2.020725942163571265, -17.50000000000001066, 3.000000000000000000 ) ) ;
#438 = VERTEX_POINT ( 'NONE', #439 ) ;
#439 = CARTESIAN_POINT ( 'NONE',  ( 2.020725942163690725, 17.49999999999999645, 3.000000000000000000 ) ) ;
#440 = DIRECTION ( 'NONE',  ( 0.5000000000000002220, 0.8660254037844384856, 0.000000000000000000 ) ) ;
#441 = EDGE_CURVE ( 'NONE', #59, #248, #168, .T. ) ;
#442 = VERTEX_POINT ( 'NONE', #594 ) ;
#443 = DIRECTION ( 'NONE',  ( 1.000000000000000000, 0.000000000000000000, 0.000000000000000000 ) ) ;
#444 = AXIS2_PLACEMENT_3D ( 'NONE', #318, #62, #320 ) ;
#445 = DIRECTION ( 'NONE',  ( 0.000000000000000000, 0.000000000000000000, 1.000000000000000000 ) ) ;
#446 = EDGE_LOOP ( 'NONE', ( #521, #509, #180, #32 ) ) ;
#447 = CARTESIAN_POINT ( 'NONE',  ( 0.000000000000000000, 0.000000000000000000, 0.000000000000000000 ) ) ;
#448 = CARTESIAN_POINT ( 'NONE',  ( 4.041451884327233124, -21.00000000000002132, 3.000000000000000000 ) ) ;
#449 = ORIENTED_EDGE ( 'NONE', *, *, #49, .T. ) ;
#450 = PRESENTATION_STYLE_ASSIGNMENT (( #238 ) ) ;
#451 = EDGE_LOOP ( 'NONE', ( #574, #311, #7, #245 ) ) ;
#452 = CARTESIAN_POINT ( 'NONE',  ( 2.200000000000000178, 21.00000000000000000, 3.000000000000000000 ) ) ;
#453 = EDGE_CURVE ( 'NONE', #561, #248, #430, .T. ) ;
#454 = DIRECTION ( 'NONE',  ( -0.4999999999999937272, 0.8660254037844422603, 0.000000000000000000 ) ) ;
#455 = PRODUCT_DEFINITION_FORMATION_WITH_SPECIFIED_SOURCE ( 'ANY', '', #93, .NOT_KNOWN. ) ;
#456 = VERTEX_POINT ( 'NONE', #422 ) ;
#457 = CARTESIAN_POINT ( 'NONE',  ( -2.071371021540764357, -24.41228014936583435, 6.000000000000000000 ) ) ;
#458 = CARTESIAN_POINT ( 'NONE',  ( 4.041451884327381450, 20.99999999999999645, 6.000000000000000000 ) ) ;
#459 = CIRCLE ( 'NONE', #496, 24.50000000000000000 ) ;
#460 = ORIENTED_EDGE ( 'NONE', *, *, #601, .T. ) ;
#461 = ADVANCED_BREP_SHAPE_REPRESENTATION ( 'LAB-001-020-120_00', ( #667, #110 ), #410 ) ;
#462 = APPLICATION_CONTEXT ( 'automotive_design' ) ;
#463 = LINE ( 'NONE', #236, #367 ) ;
#464 = ORIENTED_EDGE ( 'NONE', *, *, #584, .T. ) ;
#465 = ADVANCED_FACE ( 'NONE', ( #537, #218 ), #651, .T. ) ;
#466 = DIRECTION ( 'NONE',  ( -0.000000000000000000, -0.000000000000000000, 1.000000000000000000 ) ) ;
#467 = LINE ( 'NONE', #421, #82 ) ;
#468 = UNCERTAINTY_MEASURE_WITH_UNIT (LENGTH_MEASURE( 1.000000000000000082E-05 ), #530, 'distance_accuracy_value', 'NONE');
#469 = CARTESIAN_POINT ( 'NONE',  ( -2.020725942163693389, 17.49999999999999645, 3.000000000000000000 ) ) ;
#470 = DIRECTION ( 'NONE',  ( 0.5000000000000002220, 0.8660254037844384856, 0.000000000000000000 ) ) ;
#471 = ORIENTED_EDGE ( 'NONE', *, *, #453, .F. ) ;
#472 = VECTOR ( 'NONE', #572, 1000.000000000000114 ) ;
#473 = DIRECTION ( 'NONE',  ( -0.4999999999999937272, 0.8660254037844422603, 0.000000000000000000 ) ) ;
#474 = ADVANCED_FACE ( 'NONE', ( #540 ), #158, .T. ) ;
#475 = FACE_OUTER_BOUND ( 'NONE', #566, .T. ) ;
#476 = DIRECTION ( 'NONE',  ( 0.000000000000000000, -1.000000000000000000, 0.000000000000000000 ) ) ;
#477 = CARTESIAN_POINT ( 'NONE',  ( -2.020725942163687172, 24.49999999999999645, 3.000000000000000000 ) ) ;
#478 = CARTESIAN_POINT ( 'NONE',  ( -4.041451884327380562, 20.99999999999999289, 3.000000000000000000 ) ) ;
#479 = ORIENTED_EDGE ( 'NONE', *, *, #224, .T. ) ;
#480 =( GEOMETRIC_REPRESENTATION_CONTEXT ( 3 ) GLOBAL_UNCERTAINTY_ASSIGNED_CONTEXT ( ( #562 ) ) GLOBAL_UNIT_ASSIGNED_CONTEXT ( ( #405, #583, #570 ) ) REPRESENTATION_CONTEXT ( 'NONE', 'WORKASPACE' ) );
#481 = LINE ( 'NONE', #112, #491 ) ;
#482 = LINE ( 'NONE', #154, #190 ) ;
#483 = CARTESIAN_POINT ( 'NONE',  ( 2.199999999999854072, -21.00000000000000000, 3.000000000000000000 ) ) ;
#484 = AXIS2_PLACEMENT_3D ( 'NONE', #278, #10, #498 ) ;
#485 = DIRECTION ( 'NONE',  ( 0.4999999999999997224, -0.8660254037844388186, 0.000000000000000000 ) ) ;
#486 = DIRECTION ( 'NONE',  ( -0.000000000000000000, -0.000000000000000000, 1.000000000000000000 ) ) ;
#487 = EDGE_CURVE ( 'NONE', #111, #442, #626, .T. ) ;
#488 = PLANE ( 'NONE',  #484 ) ;
#489 = CARTESIAN_POINT ( 'NONE',  ( 0.000000000000000000, 0.000000000000000000, 0.000000000000000000 ) ) ;
#490 = EDGE_CURVE ( 'NONE', #144, #242, #60, .T. ) ;
#491 = VECTOR ( 'NONE', #213, 1000.000000000000000 ) ;
#492 = DIRECTION ( 'NONE',  ( 0.8660254037844385966, -0.5000000000000003331, 0.000000000000000000 ) ) ;
#493 = ORIENTED_EDGE ( 'NONE', *, *, #25, .F. ) ;
#494 = EDGE_LOOP ( 'NONE', ( #138, #107, #471, #512 ) ) ;
#495 = CARTESIAN_POINT ( 'NONE',  ( 0.000000000000000000, 0.000000000000000000, 6.000000000000000000 ) ) ;
#496 = AXIS2_PLACEMENT_3D ( 'NONE', #169, #24, #541 ) ;
#497 = EDGE_CURVE ( 'NONE', #674, #237, #481, .T. ) ;
#498 = DIRECTION ( 'NONE',  ( 0.4999999999999936162, -0.8660254037844423713, 0.000000000000000000 ) ) ;
#499 = CARTESIAN_POINT ( 'NONE',  ( -2.071371021540582280, 24.41228014936585211, 3.000000000000000000 ) ) ;
#500 = DIRECTION ( 'NONE',  ( 0.5000000000000062172, 0.8660254037844350439, 0.000000000000000000 ) ) ;
#501 = ORIENTED_EDGE ( 'NONE', *, *, #613, .T. ) ;
#502 = VERTEX_POINT ( 'NONE', #483 ) ;
#503 = DIRECTION ( 'NONE',  ( -0.000000000000000000, -0.000000000000000000, 1.000000000000000000 ) ) ;
#504 = AXIS2_PLACEMENT_3D ( 'NONE', #447, #659, #181 ) ;
#505 = ORIENTED_EDGE ( 'NONE', *, *, #660, .F. ) ;
#506 = PLANE ( 'NONE',  #680 ) ;
#507 = AXIS2_PLACEMENT_3D ( 'NONE', #603, #265, #377 ) ;
#508 = CARTESIAN_POINT ( 'NONE',  ( -2.200000000000147171, -21.00000000000000000, 3.000000000000000000 ) ) ;
#509 = ORIENTED_EDGE ( 'NONE', *, *, #595, .F. ) ;
#510 = DIRECTION ( 'NONE',  ( 1.000000000000000000, 0.000000000000000000, 0.000000000000000000 ) ) ;
#511 = EDGE_CURVE ( 'NONE', #177, #111, #275, .T. ) ;
#512 = ORIENTED_EDGE ( 'NONE', *, *, #649, .F. ) ;
#513 = FACE_OUTER_BOUND ( 'NONE', #141, .T. ) ;
#514 = AXIS2_PLACEMENT_3D ( 'NONE', #264, #109, #259 ) ;
#515 = FACE_OUTER_BOUND ( 'NONE', #106, .T. ) ;
#516 = AXIS2_PLACEMENT_3D ( 'NONE', #489, #546, #591 ) ;
#517 = ORIENTED_EDGE ( 'NONE', *, *, #623, .T. ) ;
#518 = CARTESIAN_POINT ( 'NONE',  ( 2.020725942163571265, -17.50000000000001066, 3.000000000000000000 ) ) ;
#519 = EDGE_CURVE ( 'NONE', #669, #51, #227, .T. ) ;
#520 = VECTOR ( 'NONE', #614, 1000.000000000000000 ) ;
#521 = ORIENTED_EDGE ( 'NONE', *, *, #497, .T. ) ;
#522 = CARTESIAN_POINT ( 'NONE',  ( -2.071371021540757695, -24.41228014936583435, 3.000000000000000000 ) ) ;
#523 = VERTEX_POINT ( 'NONE', #641 ) ;
#524 = ADVANCED_FACE ( 'NONE', ( #383 ), #124, .F. ) ;
#525 = ORIENTED_EDGE ( 'NONE', *, *, #487, .T. ) ;
#526 = CARTESIAN_POINT ( 'NONE',  ( -2.200000000000147171, -21.00000000000000000, 0.000000000000000000 ) ) ;
#527 = PRODUCT_DEFINITION_SHAPE ( 'NONE', 'NONE',  #298 ) ;
#528 = PRESENTATION_LAYER_ASSIGNMENT (  '', '', ( #122 ) ) ;
#529 = ORIENTED_EDGE ( 'NONE', *, *, #497, .F. ) ;
#530 =( LENGTH_UNIT ( ) NAMED_UNIT ( * ) SI_UNIT ( .MILLI., .METRE. ) );
#531 = CARTESIAN_POINT ( 'NONE',  ( 4.041451884327233124, -21.00000000000002132, 3.000000000000000000 ) ) ;
#532 = VECTOR ( 'NONE', #470, 1000.000000000000114 ) ;
#533 = CARTESIAN_POINT ( 'NONE',  ( 0.000000000000000000, 0.000000000000000000, 6.000000000000000000 ) ) ;
#534 = ORIENTED_EDGE ( 'NONE', *, *, #145, .T. ) ;
#535 = ORIENTED_EDGE ( 'NONE', *, *, #601, .F. ) ;
#536 = VECTOR ( 'NONE', #179, 1000.000000000000114 ) ;
#537 = FACE_BOUND ( 'NONE', #260, .T. ) ;
#538 = CARTESIAN_POINT ( 'NONE',  ( 2.071371021540417523, -24.41228014936586987, 6.000000000000000000 ) ) ;
#539 = ADVANCED_FACE ( 'NONE', ( #326 ), #551, .F. ) ;
#540 = FACE_OUTER_BOUND ( 'NONE', #413, .T. ) ;
#541 = DIRECTION ( 'NONE',  ( 1.000000000000000000, 0.000000000000000000, 0.000000000000000000 ) ) ;
#542 = EDGE_CURVE ( 'NONE', #611, #438, #280, .T. ) ;
#543 = CARTESIAN_POINT ( 'NONE',  ( 2.020725942163690725, 17.49999999999999645, 6.000000000000000000 ) ) ;
#544 = CARTESIAN_POINT ( 'NONE',  ( -2.020725942163813293, -17.49999999999998579, 3.000000000000000000 ) ) ;
#545 = ORIENTED_EDGE ( 'NONE', *, *, #276, .F. ) ;
#546 = DIRECTION ( 'NONE',  ( 0.000000000000000000, 0.000000000000000000, 1.000000000000000000 ) ) ;
#547 = AXIS2_PLACEMENT_3D ( 'NONE', #618, #132, #567 ) ;
#548 = ADVANCED_FACE ( 'NONE', ( #34 ), #81, .F. ) ;
#549 = LINE ( 'NONE', #65, #277 ) ;
#550 = VERTEX_POINT ( 'NONE', #499 ) ;
#551 = PLANE ( 'NONE',  #547 ) ;
#552 = VECTOR ( 'NONE', #16, 1000.000000000000000 ) ;
#553 = DIRECTION ( 'NONE',  ( 1.000000000000000000, 0.000000000000000000, 0.000000000000000000 ) ) ;
#554 = ORIENTED_EDGE ( 'NONE', *, *, #75, .T. ) ;
#555 = DIRECTION ( 'NONE',  ( 0.4999999999999936162, -0.8660254037844422603, 0.000000000000000000 ) ) ;
#556 = LINE ( 'NONE', #518, #520 ) ;
#557 = ORIENTED_EDGE ( 'NONE', *, *, #53, .F. ) ;
#558 = CARTESIAN_POINT ( 'NONE',  ( -2.071371021540764801, -24.41228014936583790, 6.000000000000000000 ) ) ;
#559 = VECTOR ( 'NONE', #373, 1000.000000000000000 ) ;
#560 = EDGE_CURVE ( 'NONE', #502, #274, #352, .T. ) ;
#561 = VERTEX_POINT ( 'NONE', #452 ) ;
#562 = UNCERTAINTY_MEASURE_WITH_UNIT (LENGTH_MEASURE( 1.000000000000000082E-05 ), #405, 'distance_accuracy_value', 'NONE');
#563 = CARTESIAN_POINT ( 'NONE',  ( 2.200000000000000178, 21.00000000000000000, 0.000000000000000000 ) ) ;
#564 = AXIS2_PLACEMENT_3D ( 'NONE', #130, #284, #150 ) ;
#565 = CARTESIAN_POINT ( 'NONE',  ( 0.000000000000000000, 21.00000000000000000, 0.000000000000000000 ) ) ;
#566 = EDGE_LOOP ( 'NONE', ( #302, #134, #408, #194 ) ) ;
#567 = DIRECTION ( 'NONE',  ( -0.5000000000000061062, -0.8660254037844351549, 0.000000000000000000 ) ) ;
#568 = EDGE_CURVE ( 'NONE', #523, #677, #70, .T. ) ;
#569 = ORIENTED_EDGE ( 'NONE', *, *, #660, .T. ) ;
#570 =( NAMED_UNIT ( * ) SI_UNIT ( $, .STERADIAN. ) SOLID_ANGLE_UNIT ( ) );
#571 = EDGE_CURVE ( 'NONE', #330, #621, #335, .T. ) ;
#572 = DIRECTION ( 'NONE',  ( 0.4999999999999936162, -0.8660254037844422603, 0.000000000000000000 ) ) ;
#573 = CIRCLE ( 'NONE', #233, 24.50000000000000000 ) ;
#574 = ORIENTED_EDGE ( 'NONE', *, *, #45, .T. ) ;
#575 = CARTESIAN_POINT ( 'NONE',  ( -4.041451884327380562, 20.99999999999999289, 6.000000000000000000 ) ) ;
#576 = AXIS2_PLACEMENT_3D ( 'NONE', #364, #586, #103 ) ;
#577 = ORIENTED_EDGE ( 'NONE', *, *, #161, .T. ) ;
#578 = CARTESIAN_POINT ( 'NONE',  ( 4.041451884327233124, -21.00000000000002132, 3.000000000000000000 ) ) ;
#579 = DIRECTION ( 'NONE',  ( -0.000000000000000000, -0.000000000000000000, 1.000000000000000000 ) ) ;
#580 = FILL_AREA_STYLE_COLOUR ( '', #384 ) ;
#581 = CARTESIAN_POINT ( 'NONE',  ( 4.041451884327233124, -21.00000000000002132, 6.000000000000000000 ) ) ;
#582 = DIRECTION ( 'NONE',  ( -0.5000000000000002220, -0.8660254037844384856, 0.000000000000000000 ) ) ;
#583 =( NAMED_UNIT ( * ) PLANE_ANGLE_UNIT ( ) SI_UNIT ( $, .RADIAN. ) );
#584 = EDGE_CURVE ( 'NONE', #674, #192, #573, .T. ) ;
#585 = CARTESIAN_POINT ( 'NONE',  ( -2.020725942163693389, 17.49999999999999645, 3.000000000000000000 ) ) ;
#586 = DIRECTION ( 'NONE',  ( -0.000000000000000000, -0.000000000000000000, 1.000000000000000000 ) ) ;
#587 = VECTOR ( 'NONE', #372, 1000.000000000000000 ) ;
#588 = EDGE_LOOP ( 'NONE', ( #104, #434, #232, #379 ) ) ;
#589 = ORIENTED_EDGE ( 'NONE', *, *, #316, .T. ) ;
#590 = PRODUCT_CONTEXT ( 'NONE', #462, 'mechanical' ) ;
#591 = DIRECTION ( 'NONE',  ( 1.000000000000000000, 0.000000000000000000, 0.000000000000000000 ) ) ;
#592 = ORIENTED_EDGE ( 'NONE', *, *, #453, .T. ) ;
#593 = AXIS2_PLACEMENT_3D ( 'NONE', #23, #346, #612 ) ;
#594 = CARTESIAN_POINT ( 'NONE',  ( 24.50000000000000000, 3.000384657911015469E-15, 0.000000000000000000 ) ) ;
#595 = EDGE_CURVE ( 'NONE', #58, #237, #243, .T. ) ;
#596 = LINE ( 'NONE', #321, #552 ) ;
#597 = VERTEX_POINT ( 'NONE', #26 ) ;
#598 = CIRCLE ( 'NONE', #288, 2.200000000000000622 ) ;
#599 = CARTESIAN_POINT ( 'NONE',  ( 2.071371021540591162, 24.41228014936584856, 6.000000000000000000 ) ) ;
#600 = LINE ( 'NONE', #61, #91 ) ;
#601 = EDGE_CURVE ( 'NONE', #51, #144, #666, .T. ) ;
#602 = DIRECTION ( 'NONE',  ( 0.000000000000000000, 0.000000000000000000, 1.000000000000000000 ) ) ;
#603 = CARTESIAN_POINT ( 'NONE',  ( 0.000000000000000000, 21.00000000000000000, 3.000000000000000000 ) ) ;
#604 = EDGE_LOOP ( 'NONE', ( #687, #479 ) ) ;
#605 = CARTESIAN_POINT ( 'NONE',  ( 2.020725942163571265, -17.50000000000001066, 3.000000000000000000 ) ) ;
#606 = LINE ( 'NONE', #12, #619 ) ;
#607 = ORIENTED_EDGE ( 'NONE', *, *, #673, .F. ) ;
#608 = CARTESIAN_POINT ( 'NONE',  ( -2.020725942163687172, 24.49999999999999645, 3.000000000000000000 ) ) ;
#609 = AXIS2_PLACEMENT_3D ( 'NONE', #640, #425, #251 ) ;
#610 = CARTESIAN_POINT ( 'NONE',  ( -4.041451884327380562, 20.99999999999999289, 3.000000000000000000 ) ) ;
#611 = VERTEX_POINT ( 'NONE', #175 ) ;
#612 = DIRECTION ( 'NONE',  ( 1.000000000000000000, 0.000000000000000000, 0.000000000000000000 ) ) ;
#613 = EDGE_CURVE ( 'NONE', #442, #111, #186, .T. ) ;
#614 = DIRECTION ( 'NONE',  ( -1.000000000000000000, 6.867723879941292569E-15, 0.000000000000000000 ) ) ;
#615 = ORIENTED_EDGE ( 'NONE', *, *, #92, .F. ) ;
#616 = FILL_AREA_STYLE_COLOUR ( '', #99 ) ;
#617 = EDGE_LOOP ( 'NONE', ( #645, #428, #345, #123 ) ) ;
#618 = CARTESIAN_POINT ( 'NONE',  ( -2.020725942163813293, -17.49999999999998579, 3.000000000000000000 ) ) ;
#619 = VECTOR ( 'NONE', #657, 1000.000000000000000 ) ;
#620 = FACE_BOUND ( 'NONE', #604, .T. ) ;
#621 = VERTEX_POINT ( 'NONE', #457 ) ;
#622 = DIRECTION ( 'NONE',  ( -1.000000000000000000, 6.867723879941292569E-15, 0.000000000000000000 ) ) ;
#623 = EDGE_CURVE ( 'NONE', #550, #76, #241, .T. ) ;
#624 = ORIENTED_EDGE ( 'NONE', *, *, #205, .F. ) ;
#625 = EDGE_LOOP ( 'NONE', ( #416, #661, #449, #607 ) ) ;
#626 = CIRCLE ( 'NONE', #516, 24.50000000000000000 ) ;
#627 = VECTOR ( 'NONE', #555, 1000.000000000000114 ) ;
#628 = EDGE_LOOP ( 'NONE', ( #460, #624, #167, #94 ) ) ;
#629 = FACE_OUTER_BOUND ( 'NONE', #22, .T. ) ;
#630 = ADVANCED_FACE ( 'NONE', ( #513 ), #139, .T. ) ;
#631 = CYLINDRICAL_SURFACE ( 'NONE', #609, 2.200000000000000178 ) ;
#632 = AXIS2_PLACEMENT_3D ( 'NONE', #343, #387, #85 ) ;
#633 = EDGE_LOOP ( 'NONE', ( #569, #557, #273, #100 ) ) ;
#634 = CARTESIAN_POINT ( 'NONE',  ( 0.000000000000000000, 0.000000000000000000, 0.000000000000000000 ) ) ;
#635 = CARTESIAN_POINT ( 'NONE',  ( -1.466422162314116009E-13, -21.00000000000000000, 0.000000000000000000 ) ) ;
#636 = CARTESIAN_POINT ( 'NONE',  ( -2.200000000000000178, 21.00000000000000000, 0.000000000000000000 ) ) ;
#637 = AXIS2_PLACEMENT_3D ( 'NONE', #39, #348, #333 ) ;
#638 = CARTESIAN_POINT ( 'NONE',  ( -2.200000000000000178, 21.00000000000000000, 0.000000000000000000 ) ) ;
#639 = EDGE_CURVE ( 'NONE', #339, #330, #331, .T. ) ;
#640 = CARTESIAN_POINT ( 'NONE',  ( 0.000000000000000000, 21.00000000000000000, 0.000000000000000000 ) ) ;
#641 = CARTESIAN_POINT ( 'NONE',  ( 4.041451884327381450, 20.99999999999999645, 3.000000000000000000 ) ) ;
#642 = PLANE ( 'NONE',  #156 ) ;
#643 = FACE_OUTER_BOUND ( 'NONE', #633, .T. ) ;
#644 = CARTESIAN_POINT ( 'NONE',  ( -24.50000000000000000, 0.000000000000000000, 6.000000000000000000 ) ) ;
#645 = ORIENTED_EDGE ( 'NONE', *, *, #490, .T. ) ;
#646 = AXIS2_PLACEMENT_3D ( 'NONE', #477, #207, #43 ) ;
#647 = LINE ( 'NONE', #599, #295 ) ;
#648 = CARTESIAN_POINT ( 'NONE',  ( 2.020725942163690725, 17.49999999999999645, 6.000000000000000000 ) ) ;
#649 = EDGE_CURVE ( 'NONE', #68, #561, #283, .T. ) ;
#650 = EDGE_LOOP ( 'NONE', ( #131, #96, #166, #665 ) ) ;
#651 = PLANE ( 'NONE',  #231 ) ;
#652 = CARTESIAN_POINT ( 'NONE',  ( -1.466422162314116009E-13, -21.00000000000000000, 0.000000000000000000 ) ) ;
#653 = ORIENTED_EDGE ( 'NONE', *, *, #170, .F. ) ;
#654 = CARTESIAN_POINT ( 'NONE',  ( -2.020725942163693389, 17.49999999999999645, 6.000000000000000000 ) ) ;
#655 = CIRCLE ( 'NONE', #121, 2.200000000000000622 ) ;
#656 = VECTOR ( 'NONE', #129, 1000.000000000000000 ) ;
#657 = DIRECTION ( 'NONE',  ( -0.000000000000000000, -0.000000000000000000, 1.000000000000000000 ) ) ;
#658 = ORIENTED_EDGE ( 'NONE', *, *, #432, .T. ) ;
#659 = DIRECTION ( 'NONE',  ( 0.000000000000000000, 0.000000000000000000, 1.000000000000000000 ) ) ;
#660 = EDGE_CURVE ( 'NONE', #370, #456, #670, .T. ) ;
#661 = ORIENTED_EDGE ( 'NONE', *, *, #400, .F. ) ;
#662 = LINE ( 'NONE', #394, #198 ) ;
#663 = EDGE_CURVE ( 'NONE', #76, #611, #662, .T. ) ;
#664 = DIRECTION ( 'NONE',  ( 1.000000000000000000, 0.000000000000000000, 0.000000000000000000 ) ) ;
#665 = ORIENTED_EDGE ( 'NONE', *, *, #595, .T. ) ;
#666 = LINE ( 'NONE', #654, #57 ) ;
#667 = MANIFOLD_SOLID_BREP ( 'Cut-Extrude2', #341 ) ;
#668 = ADVANCED_FACE ( 'NONE', ( #358 ), #506, .F. ) ;
#669 = VERTEX_POINT ( 'NONE', #575 ) ;
#670 = LINE ( 'NONE', #402, #174 ) ;
#671 = VECTOR ( 'NONE', #385, 999.9999999999998863 ) ;
#672 = CARTESIAN_POINT ( 'NONE',  ( -2.071371021540584501, 24.41228014936585211, 6.000000000000000000 ) ) ;
#673 = EDGE_CURVE ( 'NONE', #274, #502, #297, .T. ) ;
#674 = VERTEX_POINT ( 'NONE', #89 ) ;
#675 = SURFACE_STYLE_USAGE ( .BOTH. , #97 ) ;
#676 = CARTESIAN_POINT ( 'NONE',  ( -4.041451884327528887, -20.99999999999997158, 6.000000000000000000 ) ) ;
#677 = VERTEX_POINT ( 'NONE', #303 ) ;
#678 =( NAMED_UNIT ( * ) SI_UNIT ( $, .STERADIAN. ) SOLID_ANGLE_UNIT ( ) );
#679 = LINE ( 'NONE', #581, #328 ) ;
#680 = AXIS2_PLACEMENT_3D ( 'NONE', #469, #476, #351 ) ;
#681 = DIRECTION ( 'NONE',  ( 1.000000000000000000, 0.000000000000000000, -0.000000000000000000 ) ) ;
#682 = FACE_OUTER_BOUND ( 'NONE', #625, .T. ) ;
#683 = EDGE_CURVE ( 'NONE', #597, #274, #409, .T. ) ;
#684 = AXIS2_PLACEMENT_3D ( 'NONE', #565, #83, #664 ) ;
#685 = PLANE ( 'NONE',  #19 ) ;
#686 = CARTESIAN_POINT ( 'NONE',  ( -4.041451884327528887, -20.99999999999997158, 3.000000000000000000 ) ) ;
#687 = ORIENTED_EDGE ( 'NONE', *, *, #400, .T. ) ;
#688 = PRODUCT_RELATED_PRODUCT_CATEGORY ( 'part', '', ( #93 ) ) ;
ENDSEC;
END-ISO-10303-21;
